  0
SECTION
  2
HEADER
  9
$ACADVER
  1
AC1024
  9
$ACADMAINTVER
 70
6
  9
$DWGCODEPAGE
  3
ANSI_1252
  9
$LASTSAVEDBY
  1
ezdxf
  9
$INSBASE
 10
0.0
 20
0.0
 30
0.0
  9
$EXTMIN
 10
1e+20
 20
1e+20
 30
1e+20
  9
$EXTMAX
 10
-1e+20
 20
-1e+20
 30
-1e+20
  9
$LIMMIN
 10
0.0
 20
0.0
  9
$LIMMAX
 10
420.0
 20
297.0
  9
$ORTHOMODE
 70
0
  9
$REGENMODE
 70
1
  9
$FILLMODE
 70
1
  9
$QTEXTMODE
 70
0
  9
$MIRRTEXT
 70
1
  9
$LTSCALE
 40
1.0
  9
$ATTMODE
 70
1
  9
$TEXTSIZE
 40
2.5
  9
$TRACEWID
 40
1.0
  9
$TEXTSTYLE
  7
Standard
  9
$CLAYER
  8
0
  9
$CELTYPE
  6
ByLayer
  9
$CECOLOR
 62
256
  9
$CELTSCALE
 40
1.0
  9
$DISPSILH
 70
0
  9
$DIMSCALE
 40
1.0
  9
$DIMASZ
 40
2.5
  9
$DIMEXO
 40
0.625
  9
$DIMDLI
 40
3.75
  9
$DIMRND
 40
0.0
  9
$DIMDLE
 40
0.0
  9
$DIMEXE
 40
1.25
  9
$DIMTP
 40
0.0
  9
$DIMTM
 40
0.0
  9
$DIMTXT
 40
2.5
  9
$DIMCEN
 40
2.5
  9
$DIMTSZ
 40
0.0
  9
$DIMTOL
 70
0
  9
$DIMLIM
 70
0
  9
$DIMTIH
 70
0
  9
$DIMTOH
 70
0
  9
$DIMSE1
 70
0
  9
$DIMSE2
 70
0
  9
$DIMTAD
 70
1
  9
$DIMZIN
 70
8
  9
$DIMBLK
  1

  9
$DIMASO
 70
1
  9
$DIMSHO
 70
1
  9
$DIMPOST
  1

  9
$DIMAPOST
  1

  9
$DIMALT
 70
0
  9
$DIMALTD
 70
3
  9
$DIMALTF
 40
0.03937007874
  9
$DIMLFAC
 40
1.0
  9
$DIMTOFL
 70
1
  9
$DIMTVP
 40
0.0
  9
$DIMTIX
 70
0
  9
$DIMSOXD
 70
0
  9
$DIMSAH
 70
0
  9
$DIMBLK1
  1

  9
$DIMBLK2
  1

  9
$DIMSTYLE
  2
ISO-25
  9
$DIMCLRD
 70
0
  9
$DIMCLRE
 70
0
  9
$DIMCLRT
 70
0
  9
$DIMTFAC
 40
1.0
  9
$DIMGAP
 40
0.625
  9
$DIMJUST
 70
0
  9
$DIMSD1
 70
0
  9
$DIMSD2
 70
0
  9
$DIMTOLJ
 70
0
  9
$DIMTZIN
 70
8
  9
$DIMALTZ
 70
0
  9
$DIMALTTZ
 70
0
  9
$DIMUPT
 70
0
  9
$DIMDEC
 70
2
  9
$DIMTDEC
 70
2
  9
$DIMALTU
 70
2
  9
$DIMALTTD
 70
3
  9
$DIMTXSTY
  7
Standard
  9
$DIMAUNIT
 70
0
  9
$DIMADEC
 70
0
  9
$DIMALTRND
 40
0.0
  9
$DIMAZIN
 70
0
  9
$DIMDSEP
 70
44
  9
$DIMATFIT
 70
3
  9
$DIMFRAC
 70
0
  9
$DIMLDRBLK
  1

  9
$DIMLUNIT
 70
2
  9
$DIMLWD
 70
-2
  9
$DIMLWE
 70
-2
  9
$DIMTMOVE
 70
0
  9
$DIMFXL
 40
1.0
  9
$DIMFXLON
 70
0
  9
$DIMJOGANG
 40
0.785398163397
  9
$DIMTFILL
 70
0
  9
$DIMTFILLCLR
 70
0
  9
$DIMARCSYM
 70
0
  9
$DIMLTYPE
  6

  9
$DIMLTEX1
  6

  9
$DIMLTEX2
  6

  9
$DIMTXTDIRECTION
 70
0
  9
$LUNITS
 70
2
  9
$LUPREC
 70
4
  9
$SKETCHINC
 40
1.0
  9
$FILLETRAD
 40
10.0
  9
$AUNITS
 70
0
  9
$AUPREC
 70
2
  9
$MENU
  1
.
  9
$ELEVATION
 40
0.0
  9
$PELEVATION
 40
0.0
  9
$THICKNESS
 40
0.0
  9
$LIMCHECK
 70
0
  9
$CHAMFERA
 40
0.0
  9
$CHAMFERB
 40
0.0
  9
$CHAMFERC
 40
0.0
  9
$CHAMFERD
 40
0.0
  9
$SKPOLY
 70
0
  9
$TDCREATE
 40
2461281.7980555557
  9
$TDUCREATE
 40
2458532.153996898
  9
$TDUPDATE
 40
2461281.7980555557
  9
$TDUUPDATE
 40
2458532.1544311
  9
$TDINDWG
 40
0.0
  9
$TDUSRTIMER
 40
0.0
  9
$USRTIMER
 70
1
  9
$ANGBASE
 50
0.0
  9
$ANGDIR
 70
0
  9
$PDMODE
 70
0
  9
$PDSIZE
 40
0.0
  9
$PLINEWID
 40
0.0
  9
$SPLFRAME
 70
0
  9
$SPLINETYPE
 70
6
  9
$SPLINESEGS
 70
8
  9
$HANDSEED
  5
9F
  9
$SURFTAB1
 70
6
  9
$SURFTAB2
 70
6
  9
$SURFTYPE
 70
6
  9
$SURFU
 70
6
  9
$SURFV
 70
6
  9
$UCSBASE
  2

  9
$UCSNAME
  2

  9
$UCSORG
 10
0.0
 20
0.0
 30
0.0
  9
$UCSXDIR
 10
1.0
 20
0.0
 30
0.0
  9
$UCSYDIR
 10
0.0
 20
1.0
 30
0.0
  9
$UCSORTHOREF
  2

  9
$UCSORTHOVIEW
 70
0
  9
$UCSORGTOP
 10
0.0
 20
0.0
 30
0.0
  9
$UCSORGBOTTOM
 10
0.0
 20
0.0
 30
0.0
  9
$UCSORGLEFT
 10
0.0
 20
0.0
 30
0.0
  9
$UCSORGRIGHT
 10
0.0
 20
0.0
 30
0.0
  9
$UCSORGFRONT
 10
0.0
 20
0.0
 30
0.0
  9
$UCSORGBACK
 10
0.0
 20
0.0
 30
0.0
  9
$PUCSBASE
  2

  9
$PUCSNAME
  2

  9
$PUCSORG
 10
0.0
 20
0.0
 30
0.0
  9
$PUCSXDIR
 10
1.0
 20
0.0
 30
0.0
  9
$PUCSYDIR
 10
0.0
 20
1.0
 30
0.0
  9
$PUCSORTHOREF
  2

  9
$PUCSORTHOVIEW
 70
0
  9
$PUCSORGTOP
 10
0.0
 20
0.0
 30
0.0
  9
$PUCSORGBOTTOM
 10
0.0
 20
0.0
 30
0.0
  9
$PUCSORGLEFT
 10
0.0
 20
0.0
 30
0.0
  9
$PUCSORGRIGHT
 10
0.0
 20
0.0
 30
0.0
  9
$PUCSORGFRONT
 10
0.0
 20
0.0
 30
0.0
  9
$PUCSORGBACK
 10
0.0
 20
0.0
 30
0.0
  9
$USERI1
 70
0
  9
$USERI2
 70
0
  9
$USERI3
 70
0
  9
$USERI4
 70
0
  9
$USERI5
 70
0
  9
$USERR1
 40
0.0
  9
$USERR2
 40
0.0
  9
$USERR3
 40
0.0
  9
$USERR4
 40
0.0
  9
$USERR5
 40
0.0
  9
$WORLDVIEW
 70
1
  9
$SHADEDGE
 70
3
  9
$SHADEDIF
 70
70
  9
$TILEMODE
 70
1
  9
$MAXACTVP
 70
64
  9
$PINSBASE
 10
0.0
 20
0.0
 30
0.0
  9
$PLIMCHECK
 70
0
  9
$PEXTMIN
 10
1e+20
 20
1e+20
 30
1e+20
  9
$PEXTMAX
 10
-1e+20
 20
-1e+20
 30
-1e+20
  9
$PLIMMIN
 10
0.0
 20
0.0
  9
$PLIMMAX
 10
420.0
 20
297.0
  9
$UNITMODE
 70
0
  9
$VISRETAIN
 70
1
  9
$PLINEGEN
 70
0
  9
$PSLTSCALE
 70
1
  9
$TREEDEPTH
 70
3020
  9
$CMLSTYLE
  2
Standard
  9
$CMLJUST
 70
0
  9
$CMLSCALE
 40
20.0
  9
$PROXYGRAPHICS
 70
1
  9
$MEASUREMENT
 70
1
  9
$CELWEIGHT
370
-1
  9
$ENDCAPS
280
0
  9
$JOINSTYLE
280
0
  9
$LWDISPLAY
290
0
  9
$INSUNITS
 70
6
  9
$HYPERLINKBASE
  1

  9
$STYLESHEET
  1

  9
$XEDIT
290
1
  9
$CEPSNTYPE
380
0
  9
$PSTYLEMODE
290
1
  9
$FINGERPRINTGUID
  2
{925537E0-05AF-4987-864B-AD5BCF9A1394}
  9
$VERSIONGUID
  2
{668DA55A-E108-442E-A877-42B810BBDEBB}
  9
$EXTNAMES
290
1
  9
$PSVPSCALE
 40
0.0
  9
$OLESTARTUP
290
0
  9
$SORTENTS
280
127
  9
$INDEXCTL
280
0
  9
$HIDETEXT
280
1
  9
$XCLIPFRAME
280
1
  9
$HALOGAP
280
0
  9
$OBSCOLOR
 70
257
  9
$OBSLTYPE
280
0
  9
$INTERSECTIONDISPLAY
280
0
  9
$INTERSECTIONCOLOR
 70
257
  9
$DIMASSOC
280
2
  9
$PROJECTNAME
  1

  9
$CAMERADISPLAY
290
0
  9
$LENSLENGTH
 40
50.0
  9
$CAMERAHEIGHT
 40
0.0
  9
$STEPSPERSEC
 40
24.0
  9
$STEPSIZE
 40
100.0
  9
$3DDWFPREC
 40
2.0
  9
$PSOLWIDTH
 40
0.005
  9
$PSOLHEIGHT
 40
0.08
  9
$LOFTANG1
 40
1.570796326795
  9
$LOFTANG2
 40
1.570796326795
  9
$LOFTMAG1
 40
0.0
  9
$LOFTMAG2
 40
0.0
  9
$LOFTPARAM
 70
7
  9
$LOFTNORMALS
280
1
  9
$LATITUDE
 40
37.795
  9
$LONGITUDE
 40
-122.394
  9
$NORTHDIRECTION
 40
0.0
  9
$TIMEZONE
 70
-8000
  9
$LIGHTGLYPHDISPLAY
280
1
  9
$TILEMODELIGHTSYNCH
280
1
  9
$CMATERIAL
347
20
  9
$SOLIDHIST
280
0
  9
$SHOWHIST
280
1
  9
$DWFFRAME
280
2
  9
$DGNFRAME
280
2
  9
$REALWORLDSCALE
290
1
  9
$INTERFERECOLOR
 62
256
  9
$CSHADOW
280
0
  9
$SHADOWPLANELOCATION
 40
0.0
  0
ENDSEC
  0
SECTION
  2
CLASSES
  0
CLASS
  1
ACDBDICTIONARYWDFLT
  2
AcDbDictionaryWithDefault
  3
ObjectDBX Classes
 90
0
 91
0
280
0
281
0
  0
CLASS
  1
SUN
  2
AcDbSun
  3
SCENEOE
 90
1153
 91
0
280
0
281
0
  0
CLASS
  1
VISUALSTYLE
  2
AcDbVisualStyle
  3
ObjectDBX Classes
 90
4095
 91
0
280
0
281
0
  0
CLASS
  1
MATERIAL
  2
AcDbMaterial
  3
ObjectDBX Classes
 90
1153
 91
0
280
0
281
0
  0
CLASS
  1
SCALE
  2
AcDbScale
  3
ObjectDBX Classes
 90
1153
 91
0
280
0
281
0
  0
CLASS
  1
TABLESTYLE
  2
AcDbTableStyle
  3
ObjectDBX Classes
 90
4095
 91
0
280
0
281
0
  0
CLASS
  1
MLEADERSTYLE
  2
AcDbMLeaderStyle
  3
ACDB_MLEADERSTYLE_CLASS
 90
4095
 91
0
280
0
281
0
  0
CLASS
  1
DICTIONARYVAR
  2
AcDbDictionaryVar
  3
ObjectDBX Classes
 90
0
 91
0
280
0
281
0
  0
CLASS
  1
CELLSTYLEMAP
  2
AcDbCellStyleMap
  3
ObjectDBX Classes
 90
1152
 91
0
280
0
281
0
  0
CLASS
  1
MENTALRAYRENDERSETTINGS
  2
AcDbMentalRayRenderSettings
  3
SCENEOE
 90
1024
 91
0
280
0
281
0
  0
CLASS
  1
ACDBDETAILVIEWSTYLE
  2
AcDbDetailViewStyle
  3
ObjectDBX Classes
 90
1025
 91
0
280
0
281
0
  0
CLASS
  1
ACDBSECTIONVIEWSTYLE
  2
AcDbSectionViewStyle
  3
ObjectDBX Classes
 90
1025
 91
0
280
0
281
0
  0
CLASS
  1
RASTERVARIABLES
  2
AcDbRasterVariables
  3
ISM
 90
0
 91
0
280
0
281
0
  0
CLASS
  1
ACDBPLACEHOLDER
  2
AcDbPlaceHolder
  3
ObjectDBX Classes
 90
0
 91
0
280
0
281
0
  0
CLASS
  1
LAYOUT
  2
AcDbLayout
  3
ObjectDBX Classes
 90
0
 91
0
280
0
281
0
  0
ENDSEC
  0
SECTION
  2
TABLES
  0
TABLE
  2
VPORT
  5
8
330
0
100
AcDbSymbolTable
 70
1
  0
VPORT
  5
23
330
8
100
AcDbSymbolTableRecord
100
AcDbViewportTableRecord
  2
*Active
 70
0
 10
0.0
 20
0.0
 11
1.0
 21
1.0
 12
0.0
 22
0.0
 13
0.0
 23
0.0
 14
0.5
 24
0.5
 15
0.5
 25
0.5
 16
0.0
 26
0.0
 36
1.0
 17
0.0
 27
0.0
 37
0.0
 40
1000.0
 41
1.34
 42
50.0
 43
0.0
 44
0.0
 50
0.0
 51
0.0
 71
0
 72
1000
 73
1
 74
3
 75
0
 76
0
 77
0
 78
0
281
0
 65
0
146
0.0
  0
ENDTAB
  0
TABLE
  2
LTYPE
  5
2
330
0
100
AcDbSymbolTable
 70
3
  0
LTYPE
  5
24
330
2
100
AcDbSymbolTableRecord
100
AcDbLinetypeTableRecord
  2
ByBlock
 70
0
  3

 72
65
 73
0
 40
0.0
  0
LTYPE
  5
25
330
2
100
AcDbSymbolTableRecord
100
AcDbLinetypeTableRecord
  2
ByLayer
 70
0
  3

 72
65
 73
0
 40
0.0
  0
LTYPE
  5
26
330
2
100
AcDbSymbolTableRecord
100
AcDbLinetypeTableRecord
  2
Continuous
 70
0
  3

 72
65
 73
0
 40
0.0
  0
ENDTAB
  0
TABLE
  2
LAYER
  5
1
330
0
100
AcDbSymbolTable
 70
4
  0
LAYER
  5
27
330
1
100
AcDbSymbolTableRecord
100
AcDbLayerTableRecord
  2
0
 70
0
 62
7
  6
Continuous
370
-3
390
13
347
21
  0
LAYER
  5
28
330
1
100
AcDbSymbolTableRecord
100
AcDbLayerTableRecord
  2
Defpoints
 70
0
 62
7
  6
Continuous
290
0
370
-3
390
13
347
21
  0
LAYER
  5
30
330
1
100
AcDbSymbolTableRecord
100
AcDbLayerTableRecord
  2
LEVEL_0_OUTER
 70
0
 62
7
  6
Continuous
370
-3
390
13
347
21
  0
LAYER
  5
65
330
1
100
AcDbSymbolTableRecord
100
AcDbLayerTableRecord
  2
LEVEL_1_HOLE
 70
0
 62
1
  6
Continuous
370
-3
390
13
347
21
  0
ENDTAB
  0
TABLE
  2
STYLE
  5
5
330
0
100
AcDbSymbolTable
 70
1
  0
STYLE
  5
29
330
5
100
AcDbSymbolTableRecord
100
AcDbTextStyleTableRecord
  2
Standard
 70
0
 40
0.0
 41
1.0
 50
0.0
 71
0
 42
2.5
  3
txt
  4

  0
ENDTAB
  0
TABLE
  2
VIEW
  5
7
330
0
100
AcDbSymbolTable
 70
0
  0
ENDTAB
  0
TABLE
  2
UCS
  5
6
330
0
100
AcDbSymbolTable
 70
0
  0
ENDTAB
  0
TABLE
  2
APPID
  5
3
330
0
100
AcDbSymbolTable
 70
4
  0
APPID
  5
2A
330
3
100
AcDbSymbolTableRecord
100
AcDbRegAppTableRecord
  2
ACAD
 70
0
  0
APPID
  5
2F
330
3
100
AcDbSymbolTableRecord
100
AcDbRegAppTableRecord
  2
DXF_CONVERTER
 70
0
  0
APPID
  5
9C
330
3
100
AcDbSymbolTableRecord
100
AcDbRegAppTableRecord
  2
HATCHBACKGROUNDCOLOR
 70
0
  0
APPID
  5
9D
330
3
100
AcDbSymbolTableRecord
100
AcDbRegAppTableRecord
  2
EZDXF
 70
0
  0
ENDTAB
  0
TABLE
  2
DIMSTYLE
  5
4
330
0
100
AcDbSymbolTable
 70
1
100
AcDbDimStyleTable
  0
DIMSTYLE
105
2B
330
4
100
AcDbSymbolTableRecord
100
AcDbDimStyleTableRecord
  2
Standard
 70
0
 40
1.0
 41
2.5
 42
0.625
 43
3.75
 44
1.25
 45
0.0
 46
0.0
 47
0.0
 48
0.0
 49
2.5
140
2.5
141
2.5
142
0.0
143
0.03937007874
144
1.0
145
0.0
146
1.0
147
0.625
148
0.0
 69
0
 70
0
 71
0
 72
0
 73
0
 74
0
 75
0
 76
0
 77
1
 78
8
 79
3
170
0
171
3
172
1
173
0
174
0
175
0
176
0
177
0
178
0
179
2
271
2
272
2
273
2
274
3
275
0
276
0
277
2
278
44
279
0
280
0
281
0
282
0
283
0
284
8
285
0
286
0
288
0
289
3
290
0
371
-2
372
-2
  0
ENDTAB
  0
TABLE
  2
BLOCK_RECORD
  5
9
330
0
100
AcDbSymbolTable
 70
2
  0
BLOCK_RECORD
  5
17
330
9
100
AcDbSymbolTableRecord
100
AcDbBlockTableRecord
  2
*Model_Space
340
1A
 70
0
280
1
281
0
  0
BLOCK_RECORD
  5
1B
330
9
100
AcDbSymbolTableRecord
100
AcDbBlockTableRecord
  2
*Paper_Space
340
1E
 70
0
280
1
281
0
  0
ENDTAB
  0
ENDSEC
  0
SECTION
  2
BLOCKS
  0
BLOCK
  5
18
330
17
100
AcDbEntity
  8
0
100
AcDbBlockBegin
  2
*Model_Space
 70
0
 10
0.0
 20
0.0
 30
0.0
  3
*Model_Space
  1

  0
ENDBLK
  5
19
330
17
100
AcDbEntity
  8
0
100
AcDbBlockEnd
  0
BLOCK
  5
1C
330
1B
100
AcDbEntity
  8
0
100
AcDbBlockBegin
  2
*Paper_Space
 70
0
 10
0.0
 20
0.0
 30
0.0
  3
*Paper_Space
  1

  0
ENDBLK
  5
1D
330
1B
100
AcDbEntity
  8
0
100
AcDbBlockEnd
  0
ENDSEC
  0
SECTION
  2
ENTITIES
  0
LWPOLYLINE
  5
31
330
17
100
AcDbEntity
  8
LEVEL_0_OUTER
100
AcDbPolyline
 90
9
 70
1
 10
1558.0
 20
92.0
 10
1558.0
 20
89.0
 10
1557.0
 20
88.0
 10
1557.0
 20
84.0
 10
1564.0
 20
84.0
 10
1558.0
 20
84.0
 10
1557.0
 20
85.0
 10
1557.0
 20
88.0
 10
1558.0
 20
89.0
1001
DXF_CONVERTER
1000
ID:0
1000
PARENT:NONE
1040
0.5
1040
30.242640614509583
  0
LWPOLYLINE
  5
32
330
17
100
AcDbEntity
  8
LEVEL_0_OUTER
100
AcDbPolyline
 90
10
 70
1
 10
1560.0
 20
93.0
 10
1560.0
 20
91.0
 10
1562.0
 20
89.0
 10
1562.0
 20
88.0
 10
1564.0
 20
86.0
 10
1565.0
 20
86.0
 10
1566.0
 20
85.0
 10
1562.0
 20
89.0
 10
1562.0
 20
90.0
 10
1560.0
 20
92.0
1001
DXF_CONVERTER
1000
ID:1
1000
PARENT:NONE
1040
4.5
1040
21.55634891986847
  0
LWPOLYLINE
  5
33
330
17
100
AcDbEntity
  8
LEVEL_0_OUTER
100
AcDbPolyline
 90
23
 70
1
 10
225.0
 20
96.0
 10
225.0
 20
93.0
 10
226.0
 20
92.0
 10
226.0
 20
90.0
 10
227.0
 20
89.0
 10
227.0
 20
88.0
 10
226.0
 20
87.0
 10
219.0
 20
87.0
 10
218.0
 20
88.0
 10
222.0
 20
92.0
 10
222.0
 20
93.0
 10
223.0
 20
94.0
 10
223.0
 20
96.0
 10
223.0
 20
95.0
 10
222.0
 20
94.0
 10
222.0
 20
93.0
 10
217.0
 20
88.0
 10
218.0
 20
87.0
 10
227.0
 20
87.0
 10
227.0
 20
89.0
 10
226.0
 20
90.0
 10
226.0
 20
92.0
 10
225.0
 20
93.0
1001
DXF_CONVERTER
1000
ID:2
1000
PARENT:NONE
1040
7.0
1040
59.455843806266785
  0
LWPOLYLINE
  5
34
330
17
100
AcDbEntity
  8
LEVEL_0_OUTER
100
AcDbPolyline
 90
14
 70
1
 10
1468.0
 20
98.0
 10
1467.0
 20
97.0
 10
1467.0
 20
92.0
 10
1468.0
 20
91.0
 10
1468.0
 20
84.0
 10
1467.0
 20
83.0
 10
1468.0
 20
61.0
 10
1474.0
 20
35.0
 10
1473.0
 20
27.0
 10
1474.0
 20
29.0
 10
1475.0
 20
26.0
 10
1481.0
 20
45.0
 10
1481.0
 20
61.0
 10
1476.0
 20
81.0
1001
DXF_CONVERTER
1000
ID:3
1000
PARENT:NONE
1040
563.0
1040
153.7379673719406
  0
LWPOLYLINE
  5
35
330
17
100
AcDbEntity
  8
LEVEL_0_OUTER
100
AcDbPolyline
 90
16
 70
1
 10
1440.0
 20
101.0
 10
1441.0
 20
86.0
 10
1445.0
 20
73.0
 10
1461.0
 20
43.0
 10
1462.0
 20
45.0
 10
1463.0
 20
43.0
 10
1459.0
 20
53.0
 10
1447.0
 20
74.0
 10
1444.0
 20
85.0
 10
1444.0
 20
82.0
 10
1443.0
 20
81.0
 10
1441.0
 20
86.0
 10
1441.0
 20
91.0
 10
1442.0
 20
92.0
 10
1443.0
 20
87.0
 10
1442.0
 20
101.0
1001
DXF_CONVERTER
1000
ID:5
1000
PARENT:NONE
1040
128.5
1040
150.81404042243958
  0
LWPOLYLINE
  5
36
330
17
100
AcDbEntity
  8
LEVEL_0_OUTER
100
AcDbPolyline
 90
27
 70
1
 10
1604.0
 20
118.0
 10
1598.0
 20
119.0
 10
1603.0
 20
118.0
 10
1611.0
 20
106.0
 10
1606.0
 20
78.0
 10
1596.0
 20
62.0
 10
1588.0
 20
55.0
 10
1577.0
 20
53.0
 10
1570.0
 20
58.0
 10
1568.0
 20
65.0
 10
1573.0
 20
74.0
 10
1572.0
 20
79.0
 10
1590.0
 20
78.0
 10
1604.0
 20
93.0
 10
1605.0
 20
108.0
 10
1598.0
 20
117.0
 10
1605.0
 20
108.0
 10
1604.0
 20
93.0
 10
1587.0
 20
77.0
 10
1572.0
 20
79.0
 10
1573.0
 20
74.0
 10
1568.0
 20
63.0
 10
1574.0
 20
54.0
 10
1589.0
 20
55.0
 10
1604.0
 20
73.0
 10
1611.0
 20
95.0
 10
1610.0
 20
110.0
1001
DXF_CONVERTER
1000
ID:15
1000
PARENT:NONE
1040
26.0
1040
370.4794225692749
  0
LWPOLYLINE
  5
37
330
17
100
AcDbEntity
  8
LEVEL_0_OUTER
100
AcDbPolyline
 90
21
 70
1
 10
1449.0
 20
119.0
 10
1448.0
 20
118.0
 10
1450.0
 20
114.0
 10
1450.0
 20
89.0
 10
1451.0
 20
88.0
 10
1451.0
 20
85.0
 10
1452.0
 20
84.0
 10
1452.0
 20
82.0
 10
1453.0
 20
80.0
 10
1455.0
 20
79.0
 10
1456.0
 20
80.0
 10
1456.0
 20
83.0
 10
1457.0
 20
84.0
 10
1457.0
 20
86.0
 10
1459.0
 20
90.0
 10
1459.0
 20
93.0
 10
1460.0
 20
94.0
 10
1460.0
 20
108.0
 10
1459.0
 20
109.0
 10
1459.0
 20
111.0
 10
1453.0
 20
117.0
1001
DXF_CONVERTER
1000
ID:16
1000
PARENT:NONE
1040
305.5
1040
90.27331984043121
  0
LWPOLYLINE
  5
38
330
17
100
AcDbEntity
  8
LEVEL_0_OUTER
100
AcDbPolyline
 90
23
 70
1
 10
1318.0
 20
119.0
 10
1319.0
 20
115.0
 10
1324.0
 20
109.0
 10
1328.0
 20
108.0
 10
1329.0
 20
107.0
 10
1331.0
 20
107.0
 10
1332.0
 20
106.0
 10
1336.0
 20
106.0
 10
1337.0
 20
105.0
 10
1339.0
 20
105.0
 10
1343.0
 20
103.0
 10
1349.0
 20
97.0
 10
1350.0
 20
93.0
 10
1353.0
 20
93.0
 10
1353.0
 20
97.0
 10
1345.0
 20
105.0
 10
1344.0
 20
105.0
 10
1339.0
 20
109.0
 10
1336.0
 20
110.0
 10
1331.0
 20
114.0
 10
1327.0
 20
116.0
 10
1325.0
 20
116.0
 10
1320.0
 20
119.0
1001
DXF_CONVERTER
1000
ID:18
1000
PARENT:NONE
1040
185.5
1040
94.9649463891983
  0
LWPOLYLINE
  5
39
330
17
100
AcDbEntity
  8
LEVEL_0_OUTER
100
AcDbPolyline
 90
23
 70
1
 10
1440.0
 20
122.0
 10
1433.0
 20
122.0
 10
1432.0
 20
121.0
 10
1430.0
 20
121.0
 10
1428.0
 20
119.0
 10
1427.0
 20
119.0
 10
1424.0
 20
116.0
 10
1424.0
 20
115.0
 10
1422.0
 20
113.0
 10
1422.0
 20
109.0
 10
1425.0
 20
106.0
 10
1426.0
 20
106.0
 10
1427.0
 20
105.0
 10
1428.0
 20
105.0
 10
1431.0
 20
103.0
 10
1433.0
 20
103.0
 10
1434.0
 20
102.0
 10
1437.0
 20
103.0
 10
1438.0
 20
104.0
 10
1438.0
 20
107.0
 10
1439.0
 20
108.0
 10
1439.0
 20
113.0
 10
1440.0
 20
114.0
1001
DXF_CONVERTER
1000
ID:20
1000
PARENT:NONE
1040
265.5
1040
64.39524531364441
  0
LWPOLYLINE
  5
3A
330
17
100
AcDbEntity
  8
LEVEL_0_OUTER
100
AcDbPolyline
 90
28
 70
1
 10
466.0
 20
122.0
 10
464.0
 20
122.0
 10
460.0
 20
119.0
 10
458.0
 20
119.0
 10
450.0
 20
115.0
 10
448.0
 20
113.0
 10
447.0
 20
113.0
 10
445.0
 20
111.0
 10
441.0
 20
109.0
 10
432.0
 20
101.0
 10
431.0
 20
99.0
 10
431.0
 20
96.0
 10
433.0
 20
96.0
 10
435.0
 20
100.0
 10
438.0
 20
103.0
 10
439.0
 20
103.0
 10
444.0
 20
107.0
 10
446.0
 20
107.0
 10
447.0
 20
108.0
 10
449.0
 20
108.0
 10
450.0
 20
109.0
 10
453.0
 20
109.0
 10
454.0
 20
110.0
 10
456.0
 20
110.0
 10
458.0
 20
111.0
 10
464.0
 20
117.0
 10
464.0
 20
118.0
 10
466.0
 20
120.0
1001
DXF_CONVERTER
1000
ID:22
1000
PARENT:NONE
1040
184.0
1040
94.26124227046967
  0
LWPOLYLINE
  5
3B
330
17
100
AcDbEntity
  8
LEVEL_0_OUTER
100
AcDbPolyline
 90
20
 70
1
 10
182.0
 20
122.0
 10
176.0
 20
118.0
 10
173.0
 20
111.0
 10
173.0
 20
96.0
 10
179.0
 20
77.0
 10
185.0
 20
67.0
 10
193.0
 20
59.0
 10
200.0
 20
56.0
 10
209.0
 20
57.0
 10
214.0
 20
61.0
 10
215.0
 20
70.0
 10
211.0
 20
77.0
 10
212.0
 20
82.0
 10
198.0
 20
80.0
 10
191.0
 20
83.0
 10
184.0
 20
89.0
 10
180.0
 20
95.0
 10
178.0
 20
103.0
 10
179.0
 20
113.0
 10
187.0
 20
121.0
1001
DXF_CONVERTER
1000
ID:24
1000
PARENT:NONE
1040
987.5
1040
190.91566133499146
  0
LWPOLYLINE
  5
3C
330
17
100
AcDbEntity
  8
LEVEL_0_OUTER
100
AcDbPolyline
 90
21
 70
1
 10
1432.0
 20
128.0
 10
1418.0
 20
118.0
 10
1410.0
 20
98.0
 10
1414.0
 20
50.0
 10
1429.0
 20
21.0
 10
1446.0
 20
6.0
 10
1462.0
 20
1.0
 10
1447.0
 20
6.0
 10
1429.0
 20
22.0
 10
1411.0
 20
62.0
 10
1413.0
 20
109.0
 10
1428.0
 20
126.0
 10
1446.0
 20
128.0
 10
1472.0
 20
103.0
 10
1486.0
 20
62.0
 10
1485.0
 20
35.0
 10
1470.0
 20
1.0
 10
1486.0
 20
40.0
 10
1482.0
 20
80.0
 10
1472.0
 20
104.0
 10
1456.0
 20
123.0
1001
DXF_CONVERTER
1000
ID:26
1000
PARENT:NONE
1040
133.5
1040
631.8616619110107
  0
LWPOLYLINE
  5
3D
330
17
100
AcDbEntity
  8
LEVEL_0_OUTER
100
AcDbPolyline
 90
16
 70
1
 10
1302.0
 20
114.0
 10
1302.0
 20
116.0
 10
1291.0
 20
129.0
 10
1289.0
 20
129.0
 10
1277.0
 20
117.0
 10
1260.0
 20
107.0
 10
1249.0
 20
104.0
 10
1237.0
 20
104.0
 10
1222.0
 20
110.0
 10
1210.0
 20
121.0
 10
1208.0
 20
121.0
 10
1208.0
 20
119.0
 10
1226.0
 20
103.0
 10
1245.0
 20
97.0
 10
1264.0
 20
97.0
 10
1288.0
 20
105.0
1001
DXF_CONVERTER
1000
ID:27
1000
PARENT:NONE
1040
929.0
1040
222.50868606567383
  0
LWPOLYLINE
  5
3E
330
17
100
AcDbEntity
  8
LEVEL_0_OUTER
100
AcDbPolyline
 90
18
 70
1
 10
482.0
 20
116.0
 10
510.0
 20
102.0
 10
536.0
 20
99.0
 10
557.0
 20
106.0
 10
576.0
 20
123.0
 10
556.0
 20
106.0
 10
536.0
 20
99.0
 10
507.0
 20
103.0
 10
482.0
 20
118.0
 10
493.0
 20
131.0
 10
510.0
 20
116.0
 10
542.0
 20
106.0
 10
559.0
 20
111.0
 10
576.0
 20
125.0
 10
560.0
 20
112.0
 10
542.0
 20
106.0
 10
522.0
 20
110.0
 10
494.0
 20
131.0
1001
DXF_CONVERTER
1000
ID:30
1000
PARENT:NONE
1040
41.0
1040
438.14072036743164
  0
LWPOLYLINE
  5
3F
330
17
100
AcDbEntity
  8
LEVEL_0_OUTER
100
AcDbPolyline
 90
33
 70
1
 10
1507.0
 20
128.0
 10
1521.0
 20
115.0
 10
1529.0
 20
87.0
 10
1560.0
 20
34.0
 10
1582.0
 20
29.0
 10
1605.0
 20
42.0
 10
1625.0
 20
89.0
 10
1624.0
 20
114.0
 10
1613.0
 20
133.0
 10
1591.0
 20
137.0
 10
1573.0
 20
119.0
 10
1573.0
 20
101.0
 10
1586.0
 20
90.0
 10
1598.0
 20
93.0
 10
1600.0
 20
109.0
 10
1594.0
 20
114.0
 10
1586.0
 20
109.0
 10
1594.0
 20
114.0
 10
1601.0
 20
106.0
 10
1598.0
 20
94.0
 10
1586.0
 20
90.0
 10
1573.0
 20
101.0
 10
1572.0
 20
115.0
 10
1591.0
 20
137.0
 10
1612.0
 20
133.0
 10
1625.0
 20
109.0
 10
1624.0
 20
83.0
 10
1614.0
 20
56.0
 10
1602.0
 20
40.0
 10
1582.0
 20
29.0
 10
1566.0
 20
31.0
 10
1552.0
 20
43.0
 10
1519.0
 20
119.0
1001
DXF_CONVERTER
1000
ID:32
1000
PARENT:NONE
1040
49.0
1040
769.1879382133484
  0
LWPOLYLINE
  5
40
330
17
100
AcDbEntity
  8
LEVEL_0_OUTER
100
AcDbPolyline
 90
22
 70
1
 10
265.0
 20
168.0
 10
260.0
 20
164.0
 10
256.0
 20
154.0
 10
256.0
 20
130.0
 10
254.0
 20
130.0
 10
246.0
 20
141.0
 10
243.0
 20
141.0
 10
241.0
 20
138.0
 10
246.0
 20
114.0
 10
246.0
 20
104.0
 10
243.0
 20
94.0
 10
246.0
 20
104.0
 10
246.0
 20
114.0
 10
241.0
 20
138.0
 10
245.0
 20
141.0
 10
254.0
 20
129.0
 10
256.0
 20
129.0
 10
256.0
 20
154.0
 10
264.0
 20
168.0
 10
264.0
 20
155.0
 10
269.0
 20
144.0
 10
264.0
 20
155.0
1001
DXF_CONVERTER
1000
ID:34
1000
PARENT:NONE
1040
31.5
1040
266.6207027435303
  0
LWPOLYLINE
  5
41
330
17
100
AcDbEntity
  8
LEVEL_0_OUTER
100
AcDbPolyline
 90
22
 70
1
 10
275.0
 20
177.0
 10
273.0
 20
178.0
 10
269.0
 20
177.0
 10
262.0
 20
173.0
 10
255.0
 20
165.0
 10
251.0
 20
153.0
 10
249.0
 20
151.0
 10
243.0
 20
150.0
 10
238.0
 20
146.0
 10
236.0
 20
142.0
 10
236.0
 20
132.0
 10
240.0
 20
121.0
 10
236.0
 20
132.0
 10
236.0
 20
142.0
 10
241.0
 20
148.0
 10
251.0
 20
152.0
 10
253.0
 20
161.0
 10
263.0
 20
173.0
 10
269.0
 20
177.0
 10
273.0
 20
178.0
 10
276.0
 20
175.0
 10
276.0
 20
172.0
1001
DXF_CONVERTER
1000
ID:35
1000
PARENT:NONE
1040
21.0
1040
167.99302864074707
  0
LWPOLYLINE
  5
42
330
17
100
AcDbEntity
  8
LEVEL_0_OUTER
100
AcDbPolyline
 90
44
 70
1
 10
1489.0
 20
176.0
 10
1514.0
 20
141.0
 10
1521.0
 20
165.0
 10
1528.0
 20
127.0
 10
1543.0
 20
134.0
 10
1541.0
 20
91.0
 10
1563.0
 20
123.0
 10
1552.0
 20
74.0
 10
1567.0
 20
76.0
 10
1564.0
 20
58.0
 10
1576.0
 20
48.0
 10
1598.0
 20
54.0
 10
1616.0
 20
80.0
 10
1614.0
 20
126.0
 10
1593.0
 20
128.0
 10
1584.0
 20
106.0
 10
1592.0
 20
128.0
 10
1611.0
 20
129.0
 10
1621.0
 20
97.0
 10
1606.0
 20
62.0
 10
1587.0
 20
48.0
 10
1566.0
 20
54.0
 10
1567.0
 20
75.0
 10
1552.0
 20
73.0
 10
1563.0
 20
122.0
 10
1540.0
 20
91.0
 10
1543.0
 20
134.0
 10
1528.0
 20
126.0
 10
1520.0
 20
165.0
 10
1515.0
 20
141.0
 10
1483.0
 20
178.0
 10
1467.0
 20
177.0
 10
1452.0
 20
160.0
 10
1452.0
 20
145.0
 10
1464.0
 20
137.0
 10
1470.0
 20
165.0
 10
1491.0
 20
164.0
 10
1507.0
 20
130.0
 10
1501.0
 20
153.0
 10
1484.0
 20
167.0
 10
1464.0
 20
158.0
 10
1469.0
 20
139.0
 10
1455.0
 20
140.0
 10
1456.0
 20
168.0
1001
DXF_CONVERTER
1000
ID:36
1000
PARENT:NONE
1040
11.0
1040
1226.188970565796
  0
LWPOLYLINE
  5
43
330
17
100
AcDbEntity
  8
LEVEL_0_OUTER
100
AcDbPolyline
 90
51
 70
1
 10
328.0
 20
171.0
 10
304.0
 20
181.0
 10
279.0
 20
165.0
 10
271.0
 20
144.0
 10
286.0
 20
172.0
 10
313.0
 20
181.0
 10
333.0
 20
149.0
 10
319.0
 20
140.0
 10
315.0
 20
167.0
 10
290.0
 20
164.0
 10
214.0
 20
33.0
 10
172.0
 20
55.0
 10
160.0
 20
118.0
 10
180.0
 20
140.0
 10
210.0
 20
124.0
 10
199.0
 20
93.0
 10
183.0
 20
102.0
 10
188.0
 20
116.0
 10
200.0
 20
110.0
 10
192.0
 20
131.0
 10
173.0
 20
132.0
 10
162.0
 20
112.0
 10
173.0
 20
72.0
 10
197.0
 20
51.0
 10
218.0
 20
58.0
 10
217.0
 20
79.0
 10
232.0
 20
77.0
 10
222.0
 20
126.0
 10
241.0
 20
94.0
 10
221.0
 20
126.0
 10
232.0
 20
77.0
 10
216.0
 20
79.0
 10
218.0
 20
59.0
 10
194.0
 20
52.0
 10
169.0
 20
80.0
 10
163.0
 20
117.0
 10
188.0
 20
133.0
 10
200.0
 20
111.0
 10
187.0
 20
116.0
 10
183.0
 20
102.0
 10
199.0
 20
93.0
 10
211.0
 20
121.0
 10
195.0
 20
139.0
 10
172.0
 20
137.0
 10
158.0
 20
97.0
 10
177.0
 20
47.0
 10
199.0
 20
33.0
 10
224.0
 20
38.0
 10
285.0
 20
158.0
 10
311.0
 20
169.0
 10
325.0
 20
140.0
1001
DXF_CONVERTER
1000
ID:37
1000
PARENT:NONE
1040
947.0
1040
1711.7638387680054
  0
LWPOLYLINE
  5
44
330
17
100
AcDbEntity
  8
LEVEL_0_OUTER
100
AcDbPolyline
 90
13
 70
1
 10
1424.0
 20
187.0
 10
1415.0
 20
191.0
 10
1407.0
 20
174.0
 10
1390.0
 20
150.0
 10
1372.0
 20
133.0
 10
1348.0
 20
120.0
 10
1347.0
 20
117.0
 10
1359.0
 20
106.0
 10
1362.0
 20
106.0
 10
1377.0
 20
118.0
 10
1406.0
 20
151.0
 10
1415.0
 20
165.0
 10
1425.0
 20
185.0
1001
DXF_CONVERTER
1000
ID:38
1000
PARENT:NONE
1040
1394.0
1040
236.92386031150818
  0
LWPOLYLINE
  5
45
330
17
100
AcDbEntity
  8
LEVEL_0_OUTER
100
AcDbPolyline
 90
12
 70
1
 10
362.0
 20
190.0
 10
361.0
 20
187.0
 10
365.0
 20
177.0
 10
383.0
 20
147.0
 10
413.0
 20
115.0
 10
424.0
 20
107.0
 10
437.0
 20
119.0
 10
437.0
 20
121.0
 10
414.0
 20
134.0
 10
393.0
 20
154.0
 10
378.0
 20
176.0
 10
370.0
 20
193.0
1001
DXF_CONVERTER
1000
ID:40
1000
PARENT:NONE
1040
1364.0
1040
235.45406198501587
  0
LWPOLYLINE
  5
46
330
17
100
AcDbEntity
  8
LEVEL_0_OUTER
100
AcDbPolyline
 90
22
 70
1
 10
1628.0
 20
194.0
 10
1626.0
 20
194.0
 10
1626.0
 20
186.0
 10
1625.0
 20
185.0
 10
1624.0
 20
182.0
 10
1622.0
 20
180.0
 10
1622.0
 20
179.0
 10
1620.0
 20
177.0
 10
1619.0
 20
177.0
 10
1616.0
 20
174.0
 10
1616.0
 20
172.0
 10
1615.0
 20
171.0
 10
1615.0
 20
167.0
 10
1616.0
 20
166.0
 10
1616.0
 20
164.0
 10
1617.0
 20
163.0
 10
1620.0
 20
163.0
 10
1625.0
 20
168.0
 10
1625.0
 20
169.0
 10
1627.0
 20
172.0
 10
1627.0
 20
175.0
 10
1628.0
 20
176.0
1001
DXF_CONVERTER
1000
ID:42
1000
PARENT:NONE
1040
187.0
1040
75.80945909023285
  0
LWPOLYLINE
  5
47
330
17
100
AcDbEntity
  8
LEVEL_0_OUTER
100
AcDbPolyline
 90
23
 70
1
 10
156.0
 20
196.0
 10
156.0
 20
180.0
 10
157.0
 20
179.0
 10
157.0
 20
176.0
 10
158.0
 20
175.0
 10
158.0
 20
173.0
 10
159.0
 20
172.0
 10
160.0
 20
169.0
 10
164.0
 20
165.0
 10
166.0
 20
165.0
 10
168.0
 20
167.0
 10
168.0
 20
169.0
 10
169.0
 20
170.0
 10
169.0
 20
174.0
 10
168.0
 20
175.0
 10
167.0
 20
178.0
 10
166.0
 20
178.0
 10
161.0
 20
183.0
 10
161.0
 20
184.0
 10
159.0
 20
186.0
 10
159.0
 20
188.0
 10
158.0
 20
189.0
 10
158.0
 20
196.0
1001
DXF_CONVERTER
1000
ID:44
1000
PARENT:NONE
1040
184.5
1040
75.19461274147034
  0
LWPOLYLINE
  5
48
330
17
100
AcDbEntity
  8
LEVEL_0_OUTER
100
AcDbPolyline
 90
17
 70
1
 10
1401.0
 20
200.0
 10
1395.0
 20
202.0
 10
1384.0
 20
175.0
 10
1368.0
 20
151.0
 10
1343.0
 20
132.0
 10
1359.0
 20
141.0
 10
1372.0
 20
155.0
 10
1384.0
 20
174.0
 10
1396.0
 20
202.0
 10
1403.0
 20
197.0
 10
1379.0
 20
155.0
 10
1364.0
 20
140.0
 10
1344.0
 20
130.0
 10
1365.0
 20
140.0
 10
1379.0
 20
154.0
 10
1397.0
 20
182.0
 10
1403.0
 20
197.0
1001
DXF_CONVERTER
1000
ID:46
1000
PARENT:NONE
1040
170.0
1040
382.7780222892761
  0
LWPOLYLINE
  5
49
330
17
100
AcDbEntity
  8
LEVEL_0_OUTER
100
AcDbPolyline
 90
14
 70
1
 10
384.0
 20
202.0
 10
382.0
 20
199.0
 10
394.0
 20
172.0
 10
406.0
 20
155.0
 10
419.0
 20
142.0
 10
425.0
 20
138.0
 10
436.0
 20
133.0
 10
440.0
 20
134.0
 10
428.0
 20
141.0
 10
415.0
 20
154.0
 10
402.0
 20
174.0
 10
393.0
 20
193.0
 10
390.0
 20
203.0
 10
388.0
 20
204.0
1001
DXF_CONVERTER
1000
ID:47
1000
PARENT:NONE
1040
582.0
1040
190.06605792045593
  0
LWPOLYLINE
  5
4A
330
17
100
AcDbEntity
  8
LEVEL_0_OUTER
100
AcDbPolyline
 90
11
 70
1
 10
1381.0
 20
209.0
 10
1376.0
 20
211.0
 10
1372.0
 20
210.0
 10
1365.0
 20
190.0
 10
1349.0
 20
162.0
 10
1333.0
 20
142.0
 10
1336.0
 20
142.0
 10
1344.0
 20
146.0
 10
1356.0
 20
158.0
 10
1365.0
 20
172.0
 10
1377.0
 20
196.0
1001
DXF_CONVERTER
1000
ID:49
1000
PARENT:NONE
1040
635.0
1040
174.5518560409546
  0
LWPOLYLINE
  5
4B
330
17
100
AcDbEntity
  8
LEVEL_0_OUTER
100
AcDbPolyline
 90
19
 70
1
 10
1625.0
 20
213.0
 10
1634.0
 20
201.0
 10
1637.0
 20
191.0
 10
1637.0
 20
177.0
 10
1634.0
 20
165.0
 10
1629.0
 20
158.0
 10
1628.0
 20
162.0
 10
1627.0
 20
161.0
 10
1626.0
 20
162.0
 10
1624.0
 20
154.0
 10
1626.0
 20
147.0
 10
1628.0
 20
145.0
 10
1631.0
 20
145.0
 10
1638.0
 20
160.0
 10
1641.0
 20
175.0
 10
1641.0
 20
185.0
 10
1639.0
 20
195.0
 10
1635.0
 20
205.0
 10
1629.0
 20
212.0
1001
DXF_CONVERTER
1000
ID:51
1000
PARENT:NONE
1040
351.5
1040
164.87925243377686
  0
LWPOLYLINE
  5
4C
330
17
100
AcDbEntity
  8
LEVEL_0_OUTER
100
AcDbPolyline
 90
13
 70
1
 10
404.0
 20
211.0
 10
404.0
 20
207.0
 10
411.0
 20
190.0
 10
425.0
 20
164.0
 10
437.0
 20
150.0
 10
443.0
 20
146.0
 10
450.0
 20
144.0
 10
450.0
 20
146.0
 10
438.0
 20
160.0
 10
427.0
 20
177.0
 10
420.0
 20
190.0
 10
412.0
 20
213.0
 10
410.0
 20
214.0
1001
DXF_CONVERTER
1000
ID:53
1000
PARENT:NONE
1040
633.5
1040
173.592955827713
  0
LWPOLYLINE
  5
4D
330
17
100
AcDbEntity
  8
LEVEL_0_OUTER
100
AcDbPolyline
 90
18
 70
1
 10
160.0
 20
215.0
 10
156.0
 20
212.0
 10
151.0
 20
205.0
 10
148.0
 20
196.0
 10
148.0
 20
192.0
 10
147.0
 20
191.0
 10
148.0
 20
175.0
 10
151.0
 20
166.0
 10
154.0
 20
161.0
 10
156.0
 20
164.0
 10
155.0
 20
162.0
 10
153.0
 20
163.0
 10
151.0
 20
166.0
 10
148.0
 20
175.0
 10
147.0
 20
191.0
 10
148.0
 20
192.0
 10
149.0
 20
200.0
 10
152.0
 20
206.0
1001
DXF_CONVERTER
1000
ID:55
1000
PARENT:NONE
1040
10.5
1040
125.27993559837341
  0
LWPOLYLINE
  5
4E
330
17
100
AcDbEntity
  8
LEVEL_0_OUTER
100
AcDbPolyline
 90
17
 70
1
 10
159.0
 20
217.0
 10
149.0
 20
207.0
 10
144.0
 20
193.0
 10
144.0
 20
172.0
 10
149.0
 20
155.0
 10
153.0
 20
148.0
 10
156.0
 20
148.0
 10
158.0
 20
150.0
 10
159.0
 20
161.0
 10
158.0
 20
164.0
 10
159.0
 20
153.0
 10
154.0
 20
148.0
 10
149.0
 20
155.0
 10
145.0
 20
167.0
 10
144.0
 20
193.0
 10
149.0
 20
206.0
 10
154.0
 20
213.0
1001
DXF_CONVERTER
1000
ID:56
1000
PARENT:NONE
1040
17.0
1040
190.1474997997284
  0
LWPOLYLINE
  5
4F
330
17
100
AcDbEntity
  8
LEVEL_0_OUTER
100
AcDbPolyline
 90
16
 70
1
 10
1347.0
 20
220.0
 10
1324.0
 20
176.0
 10
1301.0
 20
149.0
 10
1299.0
 20
144.0
 10
1302.0
 20
136.0
 10
1313.0
 20
132.0
 10
1323.0
 20
121.0
 10
1325.0
 20
122.0
 10
1320.0
 20
134.0
 10
1311.0
 20
139.0
 10
1307.0
 20
144.0
 10
1318.0
 20
151.0
 10
1332.0
 20
165.0
 10
1347.0
 20
188.0
 10
1358.0
 20
212.0
 10
1358.0
 20
216.0
1001
DXF_CONVERTER
1000
ID:57
1000
PARENT:NONE
1040
1333.0
1040
259.95373272895813
  0
LWPOLYLINE
  5
50
330
17
100
AcDbEntity
  8
LEVEL_0_OUTER
100
AcDbPolyline
 90
21
 70
1
 10
436.0
 20
221.0
 10
427.0
 20
218.0
 10
440.0
 20
185.0
 10
455.0
 20
163.0
 10
476.0
 20
146.0
 10
462.0
 20
134.0
 10
458.0
 20
124.0
 10
476.0
 20
147.0
 10
451.0
 20
169.0
 10
433.0
 20
200.0
 10
428.0
 20
218.0
 10
440.0
 20
219.0
 10
458.0
 20
180.0
 10
484.0
 20
147.0
 10
483.0
 20
141.0
 10
469.0
 20
134.0
 10
460.0
 20
123.0
 10
470.0
 20
134.0
 10
482.0
 20
139.0
 10
484.0
 20
147.0
 10
458.0
 20
181.0
1001
DXF_CONVERTER
1000
ID:59
1000
PARENT:NONE
1040
93.0
1040
502.3662338256836
  0
LWPOLYLINE
  5
51
330
17
100
AcDbEntity
  8
LEVEL_0_OUTER
100
AcDbPolyline
 90
25
 70
1
 10
1561.0
 20
225.0
 10
1561.0
 20
217.0
 10
1560.0
 20
216.0
 10
1560.0
 20
213.0
 10
1559.0
 20
212.0
 10
1559.0
 20
210.0
 10
1557.0
 20
207.0
 10
1556.0
 20
207.0
 10
1555.0
 20
208.0
 10
1555.0
 20
214.0
 10
1557.0
 20
216.0
 10
1557.0
 20
218.0
 10
1559.0
 20
221.0
 10
1559.0
 20
225.0
 10
1559.0
 20
221.0
 10
1555.0
 20
214.0
 10
1555.0
 20
207.0
 10
1556.0
 20
207.0
 10
1557.0
 20
206.0
 10
1557.0
 20
207.0
 10
1559.0
 20
210.0
 10
1559.0
 20
212.0
 10
1560.0
 20
213.0
 10
1560.0
 20
216.0
 10
1561.0
 20
217.0
1001
DXF_CONVERTER
1000
ID:60
1000
PARENT:NONE
1040
2.0
1040
82.19261980056763
  0
LWPOLYLINE
  5
52
330
17
100
AcDbEntity
  8
LEVEL_0_OUTER
100
AcDbPolyline
 90
26
 70
1
 10
223.0
 20
229.0
 10
223.0
 20
226.0
 10
223.0
 20
228.0
 10
224.0
 20
229.0
 10
225.0
 20
228.0
 10
225.0
 20
225.0
 10
224.0
 20
224.0
 10
224.0
 20
217.0
 10
225.0
 20
216.0
 10
225.0
 20
213.0
 10
226.0
 20
212.0
 10
226.0
 20
210.0
 10
227.0
 20
209.0
 10
227.0
 20
208.0
 10
229.0
 20
208.0
 10
229.0
 20
210.0
 10
230.0
 20
211.0
 10
230.0
 20
214.0
 10
229.0
 20
215.0
 10
229.0
 20
217.0
 10
228.0
 20
218.0
 10
228.0
 20
219.0
 10
226.0
 20
222.0
 10
226.0
 20
224.0
 10
225.0
 20
225.0
 10
225.0
 20
229.0
1001
DXF_CONVERTER
1000
ID:61
1000
PARENT:NONE
1040
58.0
1040
56.74768662452698
  0
LWPOLYLINE
  5
53
330
17
100
AcDbEntity
  8
LEVEL_0_OUTER
100
AcDbPolyline
 90
12
 70
1
 10
1346.0
 20
239.0
 10
1346.0
 20
235.0
 10
1348.0
 20
233.0
 10
1381.0
 20
225.0
 10
1399.0
 20
218.0
 10
1413.0
 20
210.0
 10
1430.0
 20
197.0
 10
1436.0
 20
195.0
 10
1436.0
 20
200.0
 10
1431.0
 20
205.0
 10
1398.0
 20
225.0
 10
1379.0
 20
232.0
1001
DXF_CONVERTER
1000
ID:63
1000
PARENT:NONE
1040
577.0
1040
208.5888364315033
  0
LWPOLYLINE
  5
54
330
17
100
AcDbEntity
  8
LEVEL_0_OUTER
100
AcDbPolyline
 90
9
 70
1
 10
440.0
 20
241.0
 10
414.0
 20
236.0
 10
387.0
 20
227.0
 10
356.0
 20
208.0
 10
350.0
 20
202.0
 10
350.0
 20
197.0
 10
384.0
 20
219.0
 10
405.0
 20
227.0
 10
437.0
 20
235.0
1001
DXF_CONVERTER
1000
ID:65
1000
PARENT:NONE
1040
563.0
1040
207.44366788864136
  0
LWPOLYLINE
  5
55
330
17
100
AcDbEntity
  8
LEVEL_0_OUTER
100
AcDbPolyline
 90
28
 70
1
 10
1569.0
 20
253.0
 10
1599.0
 20
235.0
 10
1604.0
 20
210.0
 10
1612.0
 20
204.0
 10
1606.0
 20
193.0
 10
1616.0
 20
181.0
 10
1620.0
 20
202.0
 10
1620.0
 20
187.0
 10
1615.0
 20
181.0
 10
1606.0
 20
193.0
 10
1612.0
 20
204.0
 10
1603.0
 20
213.0
 10
1599.0
 20
236.0
 10
1569.0
 20
252.0
 10
1597.0
 20
252.0
 10
1623.0
 20
233.0
 10
1627.0
 20
223.0
 10
1616.0
 20
236.0
 10
1605.0
 20
241.0
 10
1615.0
 20
198.0
 10
1618.0
 20
202.0
 10
1614.0
 20
200.0
 10
1605.0
 20
240.0
 10
1615.0
 20
236.0
 10
1628.0
 20
220.0
 10
1625.0
 20
231.0
 10
1614.0
 20
243.0
 10
1597.0
 20
252.0
1001
DXF_CONVERTER
1000
ID:67
1000
PARENT:NONE
1040
54.0
1040
541.4467315673828
  0
LWPOLYLINE
  5
56
330
17
100
AcDbEntity
  8
LEVEL_0_OUTER
100
AcDbPolyline
 90
29
 70
1
 10
216.0
 20
255.0
 10
187.0
 20
254.0
 10
160.0
 20
235.0
 10
155.0
 20
224.0
 10
170.0
 20
239.0
 10
180.0
 20
242.0
 10
170.0
 20
203.0
 10
166.0
 20
204.0
 10
169.0
 20
201.0
 10
171.0
 20
208.0
 10
178.0
 20
201.0
 10
170.0
 20
184.0
 10
164.0
 20
191.0
 10
164.0
 20
204.0
 10
168.0
 20
184.0
 10
178.0
 20
195.0
 10
173.0
 20
207.0
 10
180.0
 20
212.0
 10
185.0
 20
236.0
 10
216.0
 20
253.0
 10
188.0
 20
241.0
 10
181.0
 20
215.0
 10
175.0
 20
208.0
 10
171.0
 20
210.0
 10
180.0
 20
242.0
 10
169.0
 20
239.0
 10
158.0
 20
227.0
 10
160.0
 20
234.0
 10
187.0
 20
254.0
1001
DXF_CONVERTER
1000
ID:69
1000
PARENT:NONE
1040
38.0
1040
531.2195348739624
  0
LWPOLYLINE
  5
57
330
17
100
AcDbEntity
  8
LEVEL_0_OUTER
100
AcDbPolyline
 90
13
 70
1
 10
1346.0
 20
262.0
 10
1346.0
 20
253.0
 10
1349.0
 20
249.0
 10
1373.0
 20
247.0
 10
1395.0
 20
241.0
 10
1426.0
 20
226.0
 10
1443.0
 20
211.0
 10
1446.0
 20
213.0
 10
1448.0
 20
218.0
 10
1447.0
 20
225.0
 10
1411.0
 20
243.0
 10
1369.0
 20
258.0
 10
1349.0
 20
263.0
1001
DXF_CONVERTER
1000
ID:70
1000
PARENT:NONE
1040
1071.0
1040
242.68363332748413
  0
LWPOLYLINE
  5
58
330
17
100
AcDbEntity
  8
LEVEL_0_OUTER
100
AcDbPolyline
 90
13
 70
1
 10
439.0
 20
264.0
 10
414.0
 20
259.0
 10
392.0
 20
252.0
 10
356.0
 20
236.0
 10
338.0
 20
226.0
 10
340.0
 20
213.0
 10
343.0
 20
213.0
 10
351.0
 20
222.0
 10
364.0
 20
231.0
 10
388.0
 20
242.0
 10
414.0
 20
249.0
 10
437.0
 20
251.0
 10
439.0
 20
254.0
1001
DXF_CONVERTER
1000
ID:72
1000
PARENT:NONE
1040
1024.0
1040
242.59343481063843
  0
LWPOLYLINE
  5
59
330
17
100
AcDbEntity
  8
LEVEL_0_OUTER
100
AcDbPolyline
 90
26
 70
1
 10
1545.0
 20
276.0
 10
1545.0
 20
274.0
 10
1546.0
 20
274.0
 10
1549.0
 20
271.0
 10
1550.0
 20
271.0
 10
1552.0
 20
269.0
 10
1552.0
 20
268.0
 10
1556.0
 20
264.0
 10
1556.0
 20
263.0
 10
1558.0
 20
261.0
 10
1558.0
 20
259.0
 10
1559.0
 20
258.0
 10
1562.0
 20
258.0
 10
1563.0
 20
259.0
 10
1566.0
 20
259.0
 10
1566.0
 20
260.0
 10
1567.0
 20
261.0
 10
1563.0
 20
265.0
 10
1563.0
 20
266.0
 10
1560.0
 20
269.0
 10
1559.0
 20
269.0
 10
1554.0
 20
273.0
 10
1552.0
 20
273.0
 10
1549.0
 20
275.0
 10
1547.0
 20
275.0
 10
1546.0
 20
276.0
1001
DXF_CONVERTER
1000
ID:74
1000
PARENT:NONE
1040
129.0
1040
63.12137317657471
  0
LWPOLYLINE
  5
5A
330
17
100
AcDbEntity
  8
LEVEL_0_OUTER
100
AcDbPolyline
 90
18
 70
1
 10
241.0
 20
277.0
 10
237.0
 20
275.0
 10
228.0
 20
266.0
 10
227.0
 20
262.0
 10
225.0
 20
260.0
 10
220.0
 20
261.0
 10
219.0
 20
262.0
 10
220.0
 20
265.0
 10
227.0
 20
272.0
 10
239.0
 20
278.0
 10
235.0
 20
276.0
 10
233.0
 20
276.0
 10
226.0
 20
272.0
 10
218.0
 20
263.0
 10
219.0
 20
261.0
 10
226.0
 20
260.0
 10
228.0
 20
265.0
 10
239.0
 20
276.0
1001
DXF_CONVERTER
1000
ID:77
1000
PARENT:NONE
1040
24.5
1040
116.2037101984024
  0
LWPOLYLINE
  5
5B
330
17
100
AcDbEntity
  8
LEVEL_0_OUTER
100
AcDbPolyline
 90
12
 70
1
 10
1343.0
 20
294.0
 10
1349.0
 20
281.0
 10
1442.0
 20
253.0
 10
1456.0
 20
244.0
 10
1442.0
 20
253.0
 10
1350.0
 20
281.0
 10
1343.0
 20
294.0
 10
1417.0
 20
264.0
 10
1458.0
 20
258.0
 10
1459.0
 20
245.0
 10
1459.0
 20
258.0
 10
1417.0
 20
264.0
1001
DXF_CONVERTER
1000
ID:78
1000
PARENT:NONE
1040
30.0
1040
525.2606630325317
  0
LWPOLYLINE
  5
5C
330
17
100
AcDbEntity
  8
LEVEL_0_OUTER
100
AcDbPolyline
 90
10
 70
1
 10
442.0
 20
297.0
 10
410.0
 20
280.0
 10
377.0
 20
268.0
 10
345.0
 20
261.0
 10
327.0
 20
260.0
 10
327.0
 20
245.0
 10
342.0
 20
254.0
 10
392.0
 20
267.0
 10
436.0
 20
283.0
 10
440.0
 20
286.0
1001
DXF_CONVERTER
1000
ID:79
1000
PARENT:NONE
1040
838.5
1040
269.28823471069336
  0
LWPOLYLINE
  5
5D
330
17
100
AcDbEntity
  8
LEVEL_0_OUTER
100
AcDbPolyline
 90
26
 70
1
 10
1508.0
 20
306.0
 10
1528.0
 20
270.0
 10
1532.0
 20
249.0
 10
1542.0
 20
236.0
 10
1545.0
 20
223.0
 10
1552.0
 20
218.0
 10
1556.0
 20
246.0
 10
1547.0
 20
236.0
 10
1543.0
 20
260.0
 10
1537.0
 20
261.0
 10
1523.0
 20
297.0
 10
1532.0
 20
297.0
 10
1546.0
 20
287.0
 10
1535.0
 20
296.0
 10
1523.0
 20
297.0
 10
1538.0
 20
259.0
 10
1544.0
 20
257.0
 10
1546.0
 20
236.0
 10
1556.0
 20
245.0
 10
1551.0
 20
218.0
 10
1532.0
 20
249.0
 10
1528.0
 20
270.0
 10
1508.0
 20
305.0
 10
1521.0
 20
309.0
 10
1549.0
 20
287.0
 10
1526.0
 20
307.0
1001
DXF_CONVERTER
1000
ID:81
1000
PARENT:NONE
1040
29.5
1040
569.0938653945923
  0
LWPOLYLINE
  5
5E
330
17
100
AcDbEntity
  8
LEVEL_0_OUTER
100
AcDbPolyline
 90
21
 70
1
 10
277.0
 20
307.0
 10
267.0
 20
310.0
 10
259.0
 20
309.0
 10
247.0
 20
301.0
 10
236.0
 20
289.0
 10
238.0
 20
287.0
 10
253.0
 20
299.0
 10
262.0
 20
299.0
 10
254.0
 20
285.0
 10
247.0
 20
261.0
 10
242.0
 20
263.0
 10
239.0
 20
252.0
 10
239.0
 20
239.0
 10
237.0
 20
237.0
 10
230.0
 20
248.0
 10
228.0
 20
245.0
 10
232.0
 20
221.0
 10
239.0
 20
225.0
 10
243.0
 20
238.0
 10
250.0
 20
245.0
 10
256.0
 20
269.0
1001
DXF_CONVERTER
1000
ID:82
1000
PARENT:NONE
1040
1100.5
1040
294.6747040748596
  0
LWPOLYLINE
  5
5F
330
17
100
AcDbEntity
  8
LEVEL_0_OUTER
100
AcDbPolyline
 90
17
 70
1
 10
152.0
 20
321.0
 10
147.0
 20
321.0
 10
146.0
 20
318.0
 10
147.0
 20
294.0
 10
146.0
 20
293.0
 10
145.0
 20
285.0
 10
141.0
 20
278.0
 10
135.0
 20
273.0
 10
137.0
 20
272.0
 10
135.0
 20
271.0
 10
137.0
 20
271.0
 10
141.0
 20
274.0
 10
149.0
 20
282.0
 10
155.0
 20
294.0
 10
157.0
 20
300.0
 10
158.0
 20
312.0
 10
156.0
 20
318.0
1001
DXF_CONVERTER
1000
ID:84
1000
PARENT:NONE
1040
402.0
1040
123.42503821849823
  0
LWPOLYLINE
  5
60
330
17
100
AcDbEntity
  8
LEVEL_0_OUTER
100
AcDbPolyline
 90
26
 70
1
 10
1416.0
 20
337.0
 10
1414.0
 20
339.0
 10
1411.0
 20
336.0
 10
1410.0
 20
336.0
 10
1408.0
 20
334.0
 10
1407.0
 20
334.0
 10
1402.0
 20
331.0
 10
1400.0
 20
331.0
 10
1399.0
 20
330.0
 10
1396.0
 20
330.0
 10
1395.0
 20
329.0
 10
1384.0
 20
329.0
 10
1384.0
 20
327.0
 10
1386.0
 20
327.0
 10
1387.0
 20
326.0
 10
1400.0
 20
320.0
 10
1402.0
 20
318.0
 10
1405.0
 20
317.0
 10
1406.0
 20
318.0
 10
1406.0
 20
320.0
 10
1408.0
 20
323.0
 10
1408.0
 20
325.0
 10
1409.0
 20
326.0
 10
1409.0
 20
327.0
 10
1411.0
 20
329.0
 10
1413.0
 20
334.0
1001
DXF_CONVERTER
1000
ID:87
1000
PARENT:NONE
1040
240.5
1040
86.17182385921478
  0
LWPOLYLINE
  5
61
330
17
100
AcDbEntity
  8
LEVEL_0_OUTER
100
AcDbPolyline
 90
22
 70
1
 10
371.0
 20
339.0
 10
371.0
 20
337.0
 10
374.0
 20
334.0
 10
374.0
 20
333.0
 10
379.0
 20
324.0
 10
379.0
 20
322.0
 10
381.0
 20
319.0
 10
384.0
 20
319.0
 10
388.0
 20
322.0
 10
389.0
 20
322.0
 10
392.0
 20
324.0
 10
394.0
 20
324.0
 10
395.0
 20
325.0
 10
402.0
 20
328.0
 10
400.0
 20
328.0
 10
397.0
 20
330.0
 10
390.0
 20
330.0
 10
389.0
 20
331.0
 10
386.0
 20
331.0
 10
385.0
 20
332.0
 10
378.0
 20
335.0
 10
373.0
 20
339.0
1001
DXF_CONVERTER
1000
ID:89
1000
PARENT:NONE
1040
227.5
1040
81.23223602771759
  0
LWPOLYLINE
  5
62
330
17
100
AcDbEntity
  8
LEVEL_0_OUTER
100
AcDbPolyline
 90
33
 70
1
 10
1275.0
 20
351.0
 10
1248.0
 20
345.0
 10
1247.0
 20
330.0
 10
1265.0
 20
321.0
 10
1265.0
 20
307.0
 10
1210.0
 20
258.0
 10
1197.0
 20
228.0
 10
1211.0
 20
183.0
 10
1247.0
 20
162.0
 10
1277.0
 20
169.0
 10
1289.0
 20
186.0
 10
1291.0
 20
205.0
 10
1274.0
 20
228.0
 10
1251.0
 20
231.0
 10
1237.0
 20
217.0
 10
1240.0
 20
197.0
 10
1260.0
 20
192.0
 10
1270.0
 20
208.0
 10
1272.0
 20
196.0
 10
1259.0
 20
185.0
 10
1240.0
 20
189.0
 10
1222.0
 20
212.0
 10
1232.0
 20
235.0
 10
1259.0
 20
239.0
 10
1277.0
 20
232.0
 10
1294.0
 20
214.0
 10
1300.0
 20
192.0
 10
1313.0
 20
211.0
 10
1307.0
 20
236.0
 10
1270.0
 20
274.0
 10
1285.0
 20
307.0
 10
1279.0
 20
335.0
 10
1294.0
 20
339.0
1001
DXF_CONVERTER
1000
ID:91
1000
PARENT:NONE
1040
10159.5
1040
875.7177438735962
  0
LWPOLYLINE
  5
63
330
17
100
AcDbEntity
  8
LEVEL_0_OUTER
100
AcDbPolyline
 90
48
 70
1
 10
537.0
 20
347.0
 10
520.0
 20
308.0
 10
587.0
 20
231.0
 10
576.0
 20
189.0
 10
536.0
 20
164.0
 10
498.0
 20
182.0
 10
501.0
 20
223.0
 10
545.0
 20
225.0
 10
536.0
 20
194.0
 10
515.0
 20
211.0
 10
536.0
 20
194.0
 10
547.0
 20
219.0
 10
533.0
 20
233.0
 10
507.0
 20
227.0
 10
493.0
 20
206.0
 10
505.0
 20
174.0
 10
536.0
 20
164.0
 10
576.0
 20
190.0
 10
587.0
 20
231.0
 10
520.0
 20
308.0
 10
537.0
 20
346.0
 10
506.0
 20
351.0
 10
492.0
 20
342.0
 10
506.0
 20
338.0
 10
500.0
 20
309.0
 10
515.0
 20
277.0
 10
474.0
 20
231.0
 10
474.0
 20
203.0
 10
483.0
 20
194.0
 10
494.0
 20
223.0
 10
526.0
 20
241.0
 10
556.0
 20
235.0
 10
562.0
 20
215.0
 10
545.0
 20
191.0
 10
518.0
 20
190.0
 10
513.0
 20
210.0
 10
514.0
 20
195.0
 10
534.0
 20
187.0
 10
562.0
 20
215.0
 10
555.0
 20
235.0
 10
526.0
 20
241.0
 10
476.0
 20
199.0
 10
477.0
 20
237.0
 10
515.0
 20
277.0
 10
500.0
 20
309.0
 10
506.0
 20
337.0
 10
492.0
 20
341.0
 10
510.0
 20
352.0
1001
DXF_CONVERTER
1000
ID:93
1000
PARENT:NONE
1040
190.5
1040
1687.0673713684082
  0
LWPOLYLINE
  5
64
330
17
100
AcDbEntity
  8
LEVEL_0_OUTER
100
AcDbPolyline
 90
32
 70
1
 10
308.0
 20
371.0
 10
212.0
 20
264.0
 10
159.0
 20
242.0
 10
139.0
 20
174.0
 10
160.0
 20
130.0
 10
165.0
 20
56.0
 10
206.0
 20
20.0
 10
240.0
 20
32.0
 10
311.0
 20
156.0
 10
312.0
 20
134.0
 10
333.0
 20
128.0
 10
297.0
 20
59.0
 10
318.0
 20
1.0
 10
350.0
 20
19.0
 10
372.0
 20
65.0
 10
367.0
 20
119.0
 10
332.0
 20
129.0
 10
343.0
 20
146.0
 10
332.0
 20
177.0
 10
280.0
 20
175.0
 10
326.0
 20
181.0
 10
341.0
 20
138.0
 10
319.0
 20
129.0
 10
312.0
 20
156.0
 10
301.0
 20
152.0
 10
245.0
 20
40.0
 10
218.0
 20
20.0
 10
165.0
 20
57.0
 10
160.0
 20
131.0
 10
139.0
 20
174.0
 10
159.0
 20
241.0
 10
213.0
 20
264.0
1001
DXF_CONVERTER
1000
ID:94
1000
PARENT:NONE
1040
7087.5
1040
1867.8201055526733
  0
LWPOLYLINE
  5
66
330
17
100
AcDbEntity
  8
LEVEL_1_HOLE
100
AcDbPolyline
 90
12
 70
1
 10
303.0
 20
67.0
 10
303.0
 20
44.0
 10
308.0
 20
31.0
 10
316.0
 20
67.0
 10
317.0
 20
99.0
 10
316.0
 20
67.0
 10
310.0
 20
41.0
 10
310.0
 20
29.0
 10
308.0
 20
29.0
 10
303.0
 20
44.0
 10
303.0
 20
67.0
 10
315.0
 20
100.0
1001
DXF_CONVERTER
1000
ID:97
1000
PARENT:94
1040
15.0
1040
287.5607280731201
  0
LWPOLYLINE
  5
67
330
17
100
AcDbEntity
  8
LEVEL_1_HOLE
100
AcDbPolyline
 90
13
 70
1
 10
343.0
 20
92.0
 10
338.0
 20
76.0
 10
337.0
 20
78.0
 10
324.0
 20
54.0
 10
325.0
 20
52.0
 10
337.0
 20
74.0
 10
323.0
 20
47.0
 10
324.0
 20
50.0
 10
322.0
 20
51.0
 10
338.0
 20
81.0
 10
341.0
 20
92.0
 10
342.0
 20
104.0
 10
344.0
 20
104.0
1001
DXF_CONVERTER
1000
ID:99
1000
PARENT:94
1040
78.0
1040
180.88690781593323
  0
LWPOLYLINE
  5
68
330
17
100
AcDbEntity
  8
LEVEL_1_HOLE
100
AcDbPolyline
 90
22
 70
1
 10
335.0
 20
119.0
 10
334.0
 20
118.0
 10
334.0
 20
95.0
 10
333.0
 20
94.0
 10
333.0
 20
90.0
 10
331.0
 20
86.0
 10
331.0
 20
84.0
 10
330.0
 20
83.0
 10
330.0
 20
81.0
 10
328.0
 20
81.0
 10
327.0
 20
88.0
 10
326.0
 20
89.0
 10
326.0
 20
92.0
 10
325.0
 20
93.0
 10
325.0
 20
96.0
 10
324.0
 20
97.0
 10
324.0
 20
110.0
 10
327.0
 20
116.0
 10
330.0
 20
119.0
 10
331.0
 20
119.0
 10
333.0
 20
121.0
 10
335.0
 20
121.0
1001
DXF_CONVERTER
1000
ID:107
1000
PARENT:94
1040
296.0
1040
90.8077564239502
  0
LWPOLYLINE
  5
69
330
17
100
AcDbEntity
  8
LEVEL_1_HOLE
100
AcDbPolyline
 90
22
 70
1
 10
345.0
 20
125.0
 10
351.0
 20
125.0
 10
354.0
 20
123.0
 10
355.0
 20
123.0
 10
361.0
 20
117.0
 10
361.0
 20
115.0
 10
362.0
 20
114.0
 10
362.0
 20
112.0
 10
359.0
 20
109.0
 10
356.0
 20
108.0
 10
355.0
 20
107.0
 10
353.0
 20
107.0
 10
352.0
 20
106.0
 10
350.0
 20
106.0
 10
349.0
 20
105.0
 10
347.0
 20
105.0
 10
346.0
 20
106.0
 10
346.0
 20
109.0
 10
345.0
 20
110.0
 10
345.0
 20
116.0
 10
344.0
 20
117.0
 10
344.0
 20
124.0
1001
DXF_CONVERTER
1000
ID:109
1000
PARENT:94
1040
260.0
1040
63.80945873260498
  0
LWPOLYLINE
  5
6A
330
17
100
AcDbEntity
  8
LEVEL_0_OUTER
100
AcDbPolyline
 90
23
 70
1
 10
151.0
 20
397.0
 10
151.0
 20
396.0
 10
154.0
 20
392.0
 10
155.0
 20
392.0
 10
158.0
 20
389.0
 10
159.0
 20
389.0
 10
164.0
 20
386.0
 10
166.0
 20
386.0
 10
169.0
 20
384.0
 10
172.0
 20
384.0
 10
173.0
 20
383.0
 10
178.0
 20
383.0
 10
179.0
 20
382.0
 10
186.0
 20
382.0
 10
179.0
 20
382.0
 10
178.0
 20
383.0
 10
173.0
 20
383.0
 10
172.0
 20
384.0
 10
169.0
 20
384.0
 10
168.0
 20
385.0
 10
159.0
 20
389.0
 10
156.0
 20
392.0
 10
155.0
 20
392.0
1001
DXF_CONVERTER
1000
ID:111
1000
PARENT:NONE
1040
10.0
1040
82.24483382701874
  0
LWPOLYLINE
  5
6B
330
17
100
AcDbEntity
  8
LEVEL_0_OUTER
100
AcDbPolyline
 90
19
 70
1
 10
468.0
 20
399.0
 10
463.0
 20
388.0
 10
457.0
 20
380.0
 10
439.0
 20
368.0
 10
439.0
 20
366.0
 10
446.0
 20
362.0
 10
444.0
 20
360.0
 10
434.0
 20
359.0
 10
421.0
 20
362.0
 10
410.0
 20
362.0
 10
395.0
 20
356.0
 10
410.0
 20
362.0
 10
421.0
 20
362.0
 10
434.0
 20
359.0
 10
445.0
 20
360.0
 10
446.0
 20
363.0
 10
440.0
 20
367.0
 10
457.0
 20
379.0
 10
463.0
 20
387.0
1001
DXF_CONVERTER
1000
ID:113
1000
PARENT:NONE
1040
42.5
1040
212.87862610816956
  0
LWPOLYLINE
  5
6C
330
17
100
AcDbEntity
  8
LEVEL_0_OUTER
100
AcDbPolyline
 90
46
 70
1
 10
1151.0
 20
368.0
 10
1121.0
 20
244.0
 10
1037.0
 20
159.0
 10
934.0
 20
142.0
 10
911.0
 20
205.0
 10
938.0
 20
151.0
 10
1009.0
 20
153.0
 10
1117.0
 20
253.0
 10
1142.0
 20
372.0
 10
1085.0
 20
423.0
 10
1130.0
 20
353.0
 10
1100.0
 20
372.0
 10
1093.0
 20
236.0
 10
1100.0
 20
373.0
 10
1128.0
 20
359.0
 10
1088.0
 20
426.0
 10
1144.0
 20
358.0
 10
1102.0
 20
228.0
 10
1009.0
 20
153.0
 10
937.0
 20
151.0
 10
920.0
 20
205.0
 10
914.0
 20
166.0
 10
1008.0
 20
146.0
 10
1121.0
 20
245.0
 10
1150.0
 20
377.0
 10
1095.0
 20
450.0
 10
937.0
 20
183.0
 10
1024.0
 20
207.0
 10
1046.0
 20
289.0
 10
1070.0
 20
253.0
 10
1035.0
 20
185.0
 10
1091.0
 20
287.0
 10
1042.0
 20
304.0
 10
1049.0
 20
350.0
 10
1107.0
 20
308.0
 10
1091.0
 20
236.0
 10
1107.0
 20
307.0
 10
1052.0
 20
351.0
 10
1042.0
 20
305.0
 10
1091.0
 20
287.0
 10
1033.0
 20
184.0
 10
1070.0
 20
253.0
 10
1047.0
 20
289.0
 10
1025.0
 20
207.0
 10
938.0
 20
180.0
 10
1111.0
 20
444.0
1001
DXF_CONVERTER
1000
ID:115
1000
PARENT:NONE
1040
1306.5
1040
4406.289968490601
  0
LWPOLYLINE
  5
6D
330
17
100
AcDbEntity
  8
LEVEL_0_OUTER
100
AcDbPolyline
 90
33
 70
1
 10
682.0
 20
445.0
 10
640.0
 20
364.0
 10
669.0
 20
244.0
 10
756.0
 20
159.0
 10
857.0
 20
143.0
 10
880.0
 20
205.0
 10
852.0
 20
151.0
 10
785.0
 20
153.0
 10
731.0
 20
183.0
 10
675.0
 20
252.0
 10
649.0
 20
370.0
 10
663.0
 20
404.0
 10
703.0
 20
426.0
 10
707.0
 20
399.0
 10
662.0
 20
355.0
 10
691.0
 20
373.0
 10
677.0
 20
302.0
 10
695.0
 20
241.0
 10
685.0
 20
308.0
 10
708.0
 20
343.0
 10
740.0
 20
351.0
 10
750.0
 20
306.0
 10
714.0
 20
315.0
 10
701.0
 20
291.0
 10
717.0
 20
232.0
 10
757.0
 20
185.0
 10
721.0
 20
256.0
 10
744.0
 20
290.0
 10
762.0
 20
212.0
 10
793.0
 20
226.0
 10
815.0
 20
173.0
 10
853.0
 20
181.0
 10
701.0
 20
450.0
1001
DXF_CONVERTER
1000
ID:118
1000
PARENT:NONE
1040
17632.5
1040
2282.306100845337
  0
LWPOLYLINE
  5
6E
330
17
100
AcDbEntity
  8
LEVEL_0_OUTER
100
AcDbPolyline
 90
35
 70
1
 10
1513.0
 20
440.0
 10
1493.0
 20
401.0
 10
1502.0
 20
385.0
 10
1475.0
 20
371.0
 10
1572.0
 20
262.0
 10
1626.0
 20
239.0
 10
1645.0
 20
170.0
 10
1624.0
 20
128.0
 10
1621.0
 20
58.0
 10
1576.0
 20
17.0
 10
1542.0
 20
30.0
 10
1483.0
 20
149.0
 10
1461.0
 20
125.0
 10
1442.0
 20
139.0
 10
1464.0
 20
182.0
 10
1523.0
 20
170.0
 10
1548.0
 20
140.0
 10
1544.0
 20
119.0
 10
1527.0
 20
165.0
 10
1481.0
 20
184.0
 10
1449.0
 20
169.0
 10
1442.0
 20
139.0
 10
1461.0
 20
125.0
 10
1484.0
 20
149.0
 10
1542.0
 20
31.0
 10
1585.0
 20
19.0
 10
1626.0
 20
72.0
 10
1643.0
 20
199.0
 10
1626.0
 20
238.0
 10
1571.0
 20
262.0
 10
1475.0
 20
370.0
 10
1503.0
 20
387.0
 10
1493.0
 20
402.0
 10
1513.0
 20
440.0
 10
1474.0
 20
453.0
1001
DXF_CONVERTER
1000
ID:124
1000
PARENT:NONE
1040
162.5
1040
1957.0563354492188
  0
LWPOLYLINE
  5
6F
330
17
100
AcDbEntity
  8
LEVEL_0_OUTER
100
AcDbPolyline
 90
25
 70
1
 10
309.0
 20
454.0
 10
316.0
 20
450.0
 10
322.0
 20
453.0
 10
331.0
 20
445.0
 10
352.0
 20
406.0
 10
340.0
 20
433.0
 10
325.0
 20
452.0
 10
317.0
 20
450.0
 10
312.0
 20
454.0
 10
306.0
 20
453.0
 10
298.0
 20
442.0
 10
285.0
 20
446.0
 10
275.0
 20
444.0
 10
275.0
 20
429.0
 10
293.0
 20
402.0
 10
285.0
 20
396.0
 10
284.0
 20
386.0
 10
311.0
 20
373.0
 10
283.0
 20
388.0
 10
293.0
 20
403.0
 10
273.0
 20
434.0
 10
273.0
 20
441.0
 10
277.0
 20
445.0
 10
299.0
 20
442.0
 10
301.0
 20
448.0
1001
DXF_CONVERTER
1000
ID:125
1000
PARENT:NONE
1040
112.5
1040
418.3293652534485
  0
LWPOLYLINE
  5
70
330
17
100
AcDbEntity
  8
LEVEL_0_OUTER
100
AcDbPolyline
 90
12
 70
1
 10
1421.0
 20
460.0
 10
1426.0
 20
445.0
 10
1426.0
 20
432.0
 10
1423.0
 20
423.0
 10
1423.0
 20
412.0
 10
1435.0
 20
388.0
 10
1437.0
 20
378.0
 10
1434.0
 20
391.0
 10
1423.0
 20
412.0
 10
1423.0
 20
423.0
 10
1426.0
 20
432.0
 10
1426.0
 20
445.0
1001
DXF_CONVERTER
1000
ID:127
1000
PARENT:NONE
1040
4.0
1040
172.67549896240234
  0
LWPOLYLINE
  5
71
330
17
100
AcDbEntity
  8
LEVEL_0_OUTER
100
AcDbPolyline
 90
18
 70
1
 10
371.0
 20
468.0
 10
365.0
 20
467.0
 10
358.0
 20
453.0
 10
356.0
 20
444.0
 10
356.0
 20
433.0
 10
359.0
 20
423.0
 10
359.0
 20
416.0
 10
354.0
 20
404.0
 10
359.0
 20
416.0
 10
359.0
 20
423.0
 10
356.0
 20
433.0
 10
356.0
 20
444.0
 10
358.0
 20
453.0
 10
367.0
 20
468.0
 10
370.0
 20
468.0
 10
373.0
 20
465.0
 10
374.0
 20
457.0
 10
374.0
 20
463.0
1001
DXF_CONVERTER
1000
ID:128
1000
PARENT:NONE
1040
12.5
1040
167.6836462020874
  0
LWPOLYLINE
  5
72
330
17
100
AcDbEntity
  8
LEVEL_0_OUTER
100
AcDbPolyline
 90
34
 70
1
 10
200.0
 20
468.0
 10
227.0
 20
451.0
 10
234.0
 20
436.0
 10
234.0
 20
419.0
 10
225.0
 20
405.0
 10
209.0
 20
402.0
 10
201.0
 20
407.0
 10
196.0
 20
420.0
 10
201.0
 20
406.0
 10
220.0
 20
402.0
 10
229.0
 20
408.0
 10
235.0
 20
429.0
 10
231.0
 20
445.0
 10
219.0
 20
460.0
 10
204.0
 20
467.0
 10
190.0
 20
468.0
 10
173.0
 20
462.0
 10
167.0
 20
453.0
 10
168.0
 20
441.0
 10
164.0
 20
438.0
 10
158.0
 20
442.0
 10
169.0
 20
416.0
 10
161.0
 20
414.0
 10
154.0
 20
422.0
 10
152.0
 20
419.0
 10
160.0
 20
401.0
 10
183.0
 20
384.0
 10
160.0
 20
402.0
 10
152.0
 20
421.0
 10
168.0
 20
414.0
 10
158.0
 20
441.0
 10
168.0
 20
440.0
 10
167.0
 20
453.0
 10
174.0
 20
462.0
1001
DXF_CONVERTER
1000
ID:129
1000
PARENT:NONE
1040
71.5
1040
564.3337969779968
  0
LWPOLYLINE
  5
73
330
17
100
AcDbEntity
  8
LEVEL_0_OUTER
100
AcDbPolyline
 90
16
 70
1
 10
704.0
 20
467.0
 10
716.0
 20
430.0
 10
820.0
 20
259.0
 10
823.0
 20
237.0
 10
845.0
 20
218.0
 10
938.0
 20
218.0
 10
955.0
 20
230.0
 10
1088.0
 20
463.0
 10
988.0
 20
467.0
 10
928.0
 20
397.0
 10
914.0
 20
438.0
 10
936.0
 20
459.0
 10
924.0
 20
468.0
 10
868.0
 20
468.0
 10
856.0
 20
389.0
 10
799.0
 20
466.0
1001
DXF_CONVERTER
1000
ID:130
1000
PARENT:NONE
1040
56869.5
1040
1280.134994506836
  0
LWPOLYLINE
  5
74
330
17
100
AcDbEntity
  8
LEVEL_1_HOLE
100
AcDbPolyline
 90
9
 70
1
 10
875.0
 20
241.0
 10
886.0
 20
258.0
 10
947.0
 20
258.0
 10
948.0
 20
256.0
 10
947.0
 20
247.0
 10
944.0
 20
240.0
 10
940.0
 20
236.0
 10
933.0
 20
233.0
 10
872.0
 20
233.0
1001
DXF_CONVERTER
1000
ID:132
1000
PARENT:130
1040
1662.0
1040
182.97231459617615
  0
LWPOLYLINE
  5
75
330
17
100
AcDbEntity
  8
LEVEL_1_HOLE
100
AcDbPolyline
 90
8
 70
1
 10
898.0
 20
276.0
 10
914.0
 20
298.0
 10
972.0
 20
298.0
 10
972.0
 20
291.0
 10
969.0
 20
283.0
 10
963.0
 20
276.0
 10
956.0
 20
273.0
 10
898.0
 20
273.0
1001
DXF_CONVERTER
1000
ID:134
1000
PARENT:130
1040
1582.5
1040
178.5822629928589
  0
LWPOLYLINE
  5
76
330
17
100
AcDbEntity
  8
LEVEL_1_HOLE
100
AcDbPolyline
 90
18
 70
1
 10
813.0
 20
299.0
 10
839.0
 20
299.0
 10
841.0
 20
298.0
 10
841.0
 20
296.0
 10
836.0
 20
289.0
 10
828.0
 20
273.0
 10
826.0
 20
273.0
 10
825.0
 20
274.0
 10
823.0
 20
274.0
 10
821.0
 20
275.0
 10
816.0
 20
280.0
 10
816.0
 20
281.0
 10
814.0
 20
283.0
 10
813.0
 20
288.0
 10
812.0
 20
289.0
 10
812.0
 20
291.0
 10
811.0
 20
292.0
 10
811.0
 20
298.0
1001
DXF_CONVERTER
1000
ID:136
1000
PARENT:130
1040
524.0
1040
93.44022858142853
  0
LWPOLYLINE
  5
77
330
17
100
AcDbEntity
  8
LEVEL_1_HOLE
100
AcDbPolyline
 90
11
 70
1
 10
927.0
 20
315.0
 10
934.0
 20
324.0
 10
948.0
 20
338.0
 10
993.0
 20
337.0
 10
996.0
 20
338.0
 10
998.0
 20
337.0
 10
997.0
 20
329.0
 10
994.0
 20
322.0
 10
988.0
 20
316.0
 10
980.0
 20
313.0
 10
927.0
 20
313.0
1001
DXF_CONVERTER
1000
ID:138
1000
PARENT:130
1040
1417.0
1040
169.31751418113708
  0
LWPOLYLINE
  5
78
330
17
100
AcDbEntity
  8
LEVEL_1_HOLE
100
AcDbPolyline
 90
7
 70
1
 10
788.0
 20
338.0
 10
871.0
 20
338.0
 10
871.0
 20
336.0
 10
854.0
 20
314.0
 10
802.0
 20
314.0
 10
795.0
 20
318.0
 10
788.0
 20
332.0
1001
DXF_CONVERTER
1000
ID:140
1000
PARENT:130
1040
1714.0
1040
194.51761150360107
  0
LWPOLYLINE
  5
79
330
17
100
AcDbEntity
  8
LEVEL_1_HOLE
100
AcDbPolyline
 90
13
 70
1
 10
1016.0
 20
359.0
 10
1009.0
 20
352.0
 10
961.0
 20
351.0
 10
1008.0
 20
352.0
 10
1014.0
 20
357.0
 10
1019.0
 20
366.0
 10
1020.0
 20
374.0
 10
1017.0
 20
377.0
 10
990.0
 20
377.0
 10
961.0
 20
353.0
 10
987.0
 20
376.0
 10
1017.0
 20
377.0
 10
1020.0
 20
374.0
1001
DXF_CONVERTER
1000
ID:142
1000
PARENT:130
1040
6.5
1040
284.4709677696228
  0
LWPOLYLINE
  5
7A
330
17
100
AcDbEntity
  8
LEVEL_1_HOLE
100
AcDbPolyline
 90
9
 70
1
 10
883.0
 20
353.0
 10
780.0
 20
353.0
 10
770.0
 20
362.0
 10
766.0
 20
374.0
 10
767.0
 20
377.0
 10
845.0
 20
377.0
 10
860.0
 20
363.0
 10
872.0
 20
378.0
 10
903.0
 20
378.0
1001
DXF_CONVERTER
1000
ID:143
1000
PARENT:130
1040
2779.5
1040
313.0082907676697
  0
LWPOLYLINE
  5
7B
330
17
100
AcDbEntity
  8
LEVEL_1_HOLE
100
AcDbPolyline
 90
24
 70
1
 10
1043.0
 20
406.0
 10
1042.0
 20
405.0
 10
1042.0
 20
403.0
 10
1041.0
 20
402.0
 10
1041.0
 20
400.0
 10
1039.0
 20
398.0
 10
1039.0
 20
397.0
 10
1034.0
 20
392.0
 10
1031.0
 20
391.0
 10
1030.0
 20
390.0
 10
1028.0
 20
390.0
 10
1027.0
 20
389.0
 10
1012.0
 20
389.0
 10
1011.0
 20
390.0
 10
1010.0
 20
390.0
 10
1011.0
 20
390.0
 10
1015.0
 20
393.0
 10
1016.0
 20
393.0
 10
1018.0
 20
395.0
 10
1025.0
 20
398.0
 10
1027.0
 20
400.0
 10
1038.0
 20
405.0
 10
1040.0
 20
407.0
 10
1043.0
 20
407.0
1001
DXF_CONVERTER
1000
ID:145
1000
PARENT:130
1040
243.5
1040
82.31694066524506
  0
LWPOLYLINE
  5
7C
330
17
100
AcDbEntity
  8
LEVEL_1_HOLE
100
AcDbPolyline
 90
9
 70
1
 10
744.0
 20
415.0
 10
820.0
 20
414.0
 10
829.0
 20
407.0
 10
836.0
 20
393.0
 10
834.0
 20
391.0
 10
760.0
 20
391.0
 10
754.0
 20
393.0
 10
748.0
 20
399.0
 10
742.0
 20
413.0
1001
DXF_CONVERTER
1000
ID:147
1000
PARENT:130
1040
1942.5
1040
212.75904417037964
  0
LWPOLYLINE
  5
7D
330
17
100
AcDbEntity
  8
LEVEL_1_HOLE
100
AcDbPolyline
 90
11
 70
1
 10
899.0
 20
416.0
 10
900.0
 20
415.0
 10
902.0
 20
415.0
 10
904.0
 20
413.0
 10
907.0
 20
407.0
 10
907.0
 20
405.0
 10
912.0
 20
394.0
 10
912.0
 20
392.0
 10
871.0
 20
392.0
 10
871.0
 20
414.0
 10
872.0
 20
416.0
1001
DXF_CONVERTER
1000
ID:149
1000
PARENT:130
1040
876.0
1040
121.26995837688446
  0
LWPOLYLINE
  5
7E
330
17
100
AcDbEntity
  8
LEVEL_1_HOLE
100
AcDbPolyline
 90
9
 70
1
 10
791.0
 20
452.0
 10
796.0
 20
450.0
 10
802.0
 20
444.0
 10
811.0
 20
431.0
 10
809.0
 20
429.0
 10
736.0
 20
430.0
 10
727.0
 20
437.0
 10
722.0
 20
446.0
 10
721.0
 20
451.0
1001
DXF_CONVERTER
1000
ID:151
1000
PARENT:130
1040
1708.5
1040
202.32065749168396
  0
LWPOLYLINE
  5
7F
330
17
100
AcDbEntity
  8
LEVEL_1_HOLE
100
AcDbPolyline
 90
19
 70
1
 10
917.0
 20
450.0
 10
911.0
 20
448.0
 10
905.0
 20
441.0
 10
904.0
 20
430.0
 10
899.0
 20
430.0
 10
898.0
 20
431.0
 10
875.0
 20
431.0
 10
874.0
 20
430.0
 10
870.0
 20
430.0
 10
868.0
 20
444.0
 10
869.0
 20
445.0
 10
870.0
 20
452.0
 10
873.0
 20
455.0
 10
879.0
 20
456.0
 10
880.0
 20
455.0
 10
892.0
 20
455.0
 10
898.0
 20
457.0
 10
913.0
 20
457.0
 10
918.0
 20
455.0
1001
DXF_CONVERTER
1000
ID:153
1000
PARENT:130
1040
1006.0
1040
139.59366083145142
  0
LWPOLYLINE
  5
80
330
17
100
AcDbEntity
  8
LEVEL_1_HOLE
100
AcDbPolyline
 90
12
 70
1
 10
1057.0
 20
425.0
 10
985.0
 20
382.0
 10
939.0
 20
340.0
 10
897.0
 20
287.0
 10
861.0
 20
226.0
 10
842.0
 20
227.0
 10
831.0
 20
237.0
 10
830.0
 20
261.0
 10
857.0
 20
308.0
 10
961.0
 20
420.0
 10
991.0
 20
461.0
 10
1078.0
 20
460.0
1001
DXF_CONVERTER
1000
ID:155
1000
PARENT:130
1040
14360.0
1040
728.1896238327026
  0
LWPOLYLINE
  5
81
330
17
100
AcDbEntity
  8
LEVEL_0_OUTER
100
AcDbPolyline
 90
20
 70
1
 10
1745.0
 20
483.0
 10
1731.0
 20
455.0
 10
1712.0
 20
437.0
 10
1728.0
 20
450.0
 10
1746.0
 20
482.0
 10
1750.0
 20
452.0
 10
1745.0
 20
423.0
 10
1734.0
 20
403.0
 10
1711.0
 20
386.0
 10
1693.0
 20
396.0
 10
1678.0
 20
419.0
 10
1673.0
 20
445.0
 10
1676.0
 20
480.0
 10
1673.0
 20
459.0
 10
1676.0
 20
425.0
 10
1686.0
 20
403.0
 10
1707.0
 20
386.0
 10
1727.0
 20
395.0
 10
1742.0
 20
415.0
 10
1750.0
 20
452.0
1001
DXF_CONVERTER
1000
ID:157
1000
PARENT:NONE
1040
57.5
1040
558.2999000549316
  0
LWPOLYLINE
  5
82
330
17
100
AcDbEntity
  8
LEVEL_0_OUTER
100
AcDbPolyline
 90
34
 70
1
 10
215.0
 20
485.0
 10
242.0
 20
459.0
 10
245.0
 20
422.0
 10
219.0
 20
397.0
 10
200.0
 20
401.0
 10
192.0
 20
414.0
 10
205.0
 20
439.0
 10
221.0
 20
423.0
 10
211.0
 20
413.0
 10
198.0
 20
418.0
 10
219.0
 20
418.0
 10
215.0
 20
438.0
 10
196.0
 20
434.0
 10
193.0
 20
410.0
 10
208.0
 20
397.0
 10
228.0
 20
400.0
 10
247.0
 20
437.0
 10
238.0
 20
467.0
 10
222.0
 20
482.0
 10
176.0
 20
483.0
 10
149.0
 20
446.0
 10
145.0
 20
377.0
 10
165.0
 20
315.0
 10
168.0
 20
330.0
 10
153.0
 20
356.0
 10
176.0
 20
349.0
 10
149.0
 20
398.0
 10
176.0
 20
349.0
 10
153.0
 20
357.0
 10
168.0
 20
330.0
 10
166.0
 20
315.0
 10
146.0
 20
369.0
 10
149.0
 20
446.0
 10
173.0
 20
481.0
1001
DXF_CONVERTER
1000
ID:158
1000
PARENT:NONE
1040
85.0
1040
1141.116714477539
  0
LWPOLYLINE
  5
83
330
17
100
AcDbEntity
  8
LEVEL_0_OUTER
100
AcDbPolyline
 90
31
 70
1
 10
1561.0
 20
487.0
 10
1532.0
 20
455.0
 10
1533.0
 20
406.0
 10
1553.0
 20
387.0
 10
1583.0
 20
388.0
 10
1597.0
 20
406.0
 10
1596.0
 20
428.0
 10
1580.0
 20
443.0
 10
1559.0
 20
439.0
 10
1578.0
 20
455.0
 10
1605.0
 20
448.0
 10
1616.0
 20
427.0
 10
1607.0
 20
407.0
 10
1619.0
 20
402.0
 10
1586.0
 20
380.0
 10
1616.0
 20
372.0
 10
1599.0
 20
347.0
 10
1610.0
 20
334.0
 10
1607.0
 20
305.0
 10
1637.0
 20
260.0
 10
1671.0
 20
255.0
 10
1684.0
 20
270.0
 10
1683.0
 20
291.0
 10
1661.0
 20
303.0
 10
1651.0
 20
296.0
 10
1649.0
 20
281.0
 10
1645.0
 20
318.0
 10
1636.0
 20
327.0
 10
1647.0
 20
388.0
 10
1637.0
 20
459.0
 10
1612.0
 20
486.0
1001
DXF_CONVERTER
1000
ID:159
1000
PARENT:NONE
1040
13883.0
1040
949.5867166519165
  0
LWPOLYLINE
  5
84
330
17
100
AcDbEntity
  8
LEVEL_1_HOLE
100
AcDbPolyline
 90
20
 70
1
 10
1638.0
 20
319.0
 10
1640.0
 20
316.0
 10
1638.0
 20
297.0
 10
1639.0
 20
296.0
 10
1640.0
 20
285.0
 10
1643.0
 20
278.0
 10
1650.0
 20
271.0
 10
1648.0
 20
272.0
 10
1647.0
 20
271.0
 10
1650.0
 20
269.0
 10
1643.0
 20
273.0
 10
1636.0
 20
281.0
 10
1633.0
 20
286.0
 10
1633.0
 20
288.0
 10
1629.0
 20
297.0
 10
1628.0
 20
311.0
 10
1629.0
 20
312.0
 10
1629.0
 20
315.0
 10
1632.0
 20
319.0
 10
1635.0
 20
320.0
1001
DXF_CONVERTER
1000
ID:161
1000
PARENT:159
1040
389.5
1040
126.08784997463226
  0
LWPOLYLINE
  5
85
330
17
100
AcDbEntity
  8
LEVEL_1_HOLE
100
AcDbPolyline
 90
45
 70
1
 10
1613.0
 20
480.0
 10
1636.0
 20
448.0
 10
1641.0
 20
376.0
 10
1621.0
 20
313.0
 10
1631.0
 20
352.0
 10
1610.0
 20
350.0
 10
1636.0
 20
394.0
 10
1600.0
 20
383.0
 10
1632.0
 20
411.0
 10
1617.0
 20
414.0
 10
1628.0
 20
439.0
 10
1599.0
 20
466.0
 10
1568.0
 20
459.0
 10
1551.0
 20
419.0
 10
1575.0
 20
400.0
 10
1589.0
 20
419.0
 10
1575.0
 20
400.0
 10
1556.0
 20
407.0
 10
1551.0
 20
433.0
 10
1584.0
 20
466.0
 10
1612.0
 20
461.0
 10
1628.0
 20
440.0
 10
1617.0
 20
415.0
 10
1632.0
 20
411.0
 10
1600.0
 20
382.0
 10
1636.0
 20
394.0
 10
1610.0
 20
349.0
 10
1632.0
 20
355.0
 10
1620.0
 20
313.0
 10
1642.0
 20
385.0
 10
1625.0
 20
469.0
 10
1581.0
 20
486.0
 10
1547.0
 20
464.0
 10
1544.0
 20
412.0
 10
1583.0
 20
398.0
 10
1590.0
 20
430.0
 10
1565.0
 20
429.0
 10
1581.0
 20
412.0
 10
1565.0
 20
429.0
 10
1583.0
 20
437.0
 10
1584.0
 20
398.0
 10
1555.0
 20
400.0
 10
1540.0
 20
421.0
 10
1547.0
 20
465.0
 10
1575.0
 20
485.0
1001
DXF_CONVERTER
1000
ID:163
1000
PARENT:159
1040
817.0
1040
1673.7823762893677
  0
LWPOLYLINE
  5
86
330
17
100
AcDbEntity
  8
LEVEL_0_OUTER
100
AcDbPolyline
 90
23
 70
1
 10
389.0
 20
490.0
 10
385.0
 20
491.0
 10
383.0
 20
490.0
 10
381.0
 20
487.0
 10
381.0
 20
485.0
 10
379.0
 20
481.0
 10
379.0
 20
478.0
 10
378.0
 20
477.0
 10
378.0
 20
474.0
 10
377.0
 20
473.0
 10
376.0
 20
457.0
 10
376.0
 20
466.0
 10
377.0
 20
467.0
 10
377.0
 20
473.0
 10
378.0
 20
474.0
 10
379.0
 20
481.0
 10
380.0
 20
482.0
 10
381.0
 20
487.0
 10
385.0
 20
491.0
 10
388.0
 20
490.0
 10
394.0
 20
484.0
 10
397.0
 20
478.0
 10
396.0
 20
482.0
1001
DXF_CONVERTER
1000
ID:165
1000
PARENT:NONE
1040
8.0
1040
111.47510349750519
  0
LWPOLYLINE
  5
87
330
17
100
AcDbEntity
  8
LEVEL_0_OUTER
100
AcDbPolyline
 90
12
 70
1
 10
681.0
 20
492.0
 10
679.0
 20
493.0
 10
668.0
 20
487.0
 10
653.0
 20
472.0
 10
633.0
 20
438.0
 10
631.0
 20
432.0
 10
632.0
 20
424.0
 10
635.0
 20
424.0
 10
639.0
 20
427.0
 10
650.0
 20
442.0
 10
674.0
 20
470.0
 10
681.0
 20
485.0
1001
DXF_CONVERTER
1000
ID:166
1000
PARENT:NONE
1040
1069.5
1040
176.84441590309143
  0
LWPOLYLINE
  5
88
330
17
100
AcDbEntity
  8
LEVEL_0_OUTER
100
AcDbPolyline
 90
44
 70
1
 10
222.0
 20
489.0
 10
256.0
 20
448.0
 10
249.0
 20
403.0
 10
225.0
 20
386.0
 10
194.0
 20
398.0
 10
193.0
 20
435.0
 10
227.0
 20
439.0
 10
205.0
 20
457.0
 10
181.0
 20
451.0
 10
167.0
 20
404.0
 10
195.0
 20
457.0
 10
226.0
 20
441.0
 10
191.0
 20
433.0
 10
200.0
 20
391.0
 10
225.0
 20
386.0
 10
252.0
 20
407.0
 10
256.0
 20
448.0
 10
235.0
 20
482.0
 10
196.0
 20
493.0
 10
155.0
 20
472.0
 10
139.0
 20
411.0
 10
149.0
 20
328.0
 10
136.0
 20
283.0
 10
128.0
 20
304.0
 10
104.0
 20
295.0
 10
115.0
 20
257.0
 10
157.0
 20
270.0
 10
186.0
 20
342.0
 10
170.0
 20
373.0
 10
199.0
 20
379.0
 10
167.0
 20
402.0
 10
199.0
 20
382.0
 10
169.0
 20
373.0
 10
186.0
 20
350.0
 10
179.0
 20
309.0
 10
148.0
 20
262.0
 10
114.0
 20
258.0
 10
105.0
 20
296.0
 10
125.0
 20
305.0
 10
137.0
 20
283.0
 10
150.0
 20
327.0
 10
139.0
 20
392.0
 10
149.0
 20
460.0
 10
178.0
 20
489.0
1001
DXF_CONVERTER
1000
ID:168
1000
PARENT:NONE
1040
263.0
1040
1824.0791568756104
  0
LWPOLYLINE
  5
89
330
17
100
AcDbEntity
  8
LEVEL_0_OUTER
100
AcDbPolyline
 90
25
 70
1
 10
1737.0
 20
476.0
 10
1713.0
 20
439.0
 10
1737.0
 20
476.0
 10
1738.0
 20
492.0
 10
1731.0
 20
502.0
 10
1717.0
 20
477.0
 10
1710.0
 20
484.0
 10
1703.0
 20
469.0
 10
1700.0
 20
421.0
 10
1706.0
 20
399.0
 10
1689.0
 20
462.0
 10
1678.0
 20
480.0
 10
1691.0
 20
456.0
 10
1702.0
 20
405.0
 10
1700.0
 20
486.0
 10
1692.0
 20
504.0
 10
1682.0
 20
481.0
 10
1696.0
 20
446.0
 10
1682.0
 20
489.0
 10
1693.0
 20
504.0
 10
1700.0
 20
486.0
 10
1700.0
 20
452.0
 10
1708.0
 20
483.0
 10
1716.0
 20
477.0
 10
1732.0
 20
502.0
1001
DXF_CONVERTER
1000
ID:170
1000
PARENT:NONE
1040
150.5
1040
787.0686988830566
  0
LWPOLYLINE
  5
8A
330
17
100
AcDbEntity
  8
LEVEL_0_OUTER
100
AcDbPolyline
 90
23
 70
1
 10
101.0
 20
505.0
 10
92.0
 20
490.0
 10
91.0
 20
459.0
 10
84.0
 20
484.0
 10
76.0
 20
477.0
 10
63.0
 20
503.0
 10
55.0
 20
497.0
 10
57.0
 20
471.0
 10
78.0
 20
439.0
 10
61.0
 20
456.0
 10
47.0
 20
484.0
 10
43.0
 20
474.0
 10
51.0
 20
414.0
 10
81.0
 20
387.0
 10
106.0
 20
405.0
 10
117.0
 20
434.0
 10
113.0
 20
481.0
 10
89.0
 20
409.0
 10
91.0
 20
483.0
 10
99.0
 20
505.0
 10
110.0
 20
484.0
 10
95.0
 20
446.0
 10
110.0
 20
484.0
1001
DXF_CONVERTER
1000
ID:172
1000
PARENT:NONE
1040
4642.5
1040
766.1140222549438
  0
LWPOLYLINE
  5
8B
330
17
100
AcDbEntity
  8
LEVEL_0_OUTER
100
AcDbPolyline
 90
36
 70
1
 10
1363.0
 20
506.0
 10
1421.0
 20
357.0
 10
1327.0
 20
388.0
 10
1421.0
 20
356.0
 10
1364.0
 20
506.0
 10
1430.0
 20
388.0
 10
1433.0
 20
300.0
 10
1455.0
 20
302.0
 10
1447.0
 20
383.0
 10
1500.0
 20
434.0
 10
1449.0
 20
352.0
 10
1503.0
 20
324.0
 10
1449.0
 20
340.0
 10
1467.0
 20
311.0
 10
1520.0
 20
318.0
 10
1491.0
 20
356.0
 10
1457.0
 20
358.0
 10
1508.0
 20
434.0
 10
1476.0
 20
447.0
 10
1439.0
 20
377.0
 10
1463.0
 20
441.0
 10
1460.0
 20
415.0
 10
1477.0
 20
447.0
 10
1506.0
 20
439.0
 10
1457.0
 20
357.0
 10
1522.0
 20
321.0
 10
1467.0
 20
311.0
 10
1449.0
 20
341.0
 10
1503.0
 20
323.0
 10
1449.0
 20
353.0
 10
1500.0
 20
434.0
 10
1452.0
 20
393.0
 10
1436.0
 20
339.0
 10
1455.0
 20
302.0
 10
1432.0
 20
302.0
 10
1430.0
 20
388.0
1001
DXF_CONVERTER
1000
ID:178
1000
PARENT:NONE
1040
1231.0
1040
2549.065174102783
  0
LWPOLYLINE
  5
8C
330
17
100
AcDbEntity
  8
LEVEL_0_OUTER
100
AcDbPolyline
 90
21
 70
1
 10
416.0
 20
457.0
 10
364.0
 20
357.0
 10
416.0
 20
388.0
 10
462.0
 20
392.0
 10
373.0
 20
348.0
 10
419.0
 20
340.0
 10
398.0
 20
354.0
 10
419.0
 20
339.0
 10
373.0
 20
348.0
 10
447.0
 20
379.0
 10
461.0
 20
395.0
 10
411.0
 20
386.0
 10
364.0
 20
356.0
 10
416.0
 20
457.0
 10
423.0
 20
505.0
 10
356.0
 20
388.0
 10
353.0
 20
302.0
 10
331.0
 20
302.0
 10
354.0
 20
305.0
 10
356.0
 20
388.0
 10
423.0
 20
506.0
1001
DXF_CONVERTER
1000
ID:179
1000
PARENT:NONE
1040
254.0
1040
1367.7658386230469
  0
LWPOLYLINE
  5
8D
330
17
100
AcDbEntity
  8
LEVEL_0_OUTER
100
AcDbPolyline
 90
35
 70
1
 10
1702.0
 20
515.0
 10
1699.0
 20
512.0
 10
1699.0
 20
510.0
 10
1698.0
 20
509.0
 10
1698.0
 20
506.0
 10
1699.0
 20
505.0
 10
1699.0
 20
503.0
 10
1700.0
 20
502.0
 10
1700.0
 20
500.0
 10
1701.0
 20
499.0
 10
1701.0
 20
498.0
 10
1704.0
 20
495.0
 10
1704.0
 20
494.0
 10
1708.0
 20
491.0
 10
1715.0
 20
491.0
 10
1716.0
 20
492.0
 10
1717.0
 20
492.0
 10
1721.0
 20
497.0
 10
1721.0
 20
498.0
 10
1723.0
 20
501.0
 10
1723.0
 20
503.0
 10
1724.0
 20
504.0
 10
1724.0
 20
509.0
 10
1723.0
 20
510.0
 10
1722.0
 20
513.0
 10
1721.0
 20
513.0
 10
1719.0
 20
515.0
 10
1717.0
 20
515.0
 10
1716.0
 20
516.0
 10
1712.0
 20
516.0
 10
1711.0
 20
517.0
 10
1710.0
 20
517.0
 10
1709.0
 20
516.0
 10
1705.0
 20
516.0
 10
1704.0
 20
515.0
1001
DXF_CONVERTER
1000
ID:180
1000
PARENT:NONE
1040
513.0
1040
86.04101026058197
  0
LWPOLYLINE
  5
8E
330
17
100
AcDbEntity
  8
LEVEL_0_OUTER
100
AcDbPolyline
 90
30
 70
1
 10
86.0
 20
518.0
 10
77.0
 20
518.0
 10
76.0
 20
517.0
 10
74.0
 20
517.0
 10
73.0
 20
516.0
 10
72.0
 20
516.0
 10
69.0
 20
513.0
 10
69.0
 20
512.0
 10
68.0
 20
511.0
 10
68.0
 20
505.0
 10
69.0
 20
504.0
 10
69.0
 20
502.0
 10
70.0
 20
501.0
 10
71.0
 20
498.0
 10
76.0
 20
493.0
 10
81.0
 20
492.0
 10
82.0
 20
493.0
 10
84.0
 20
493.0
 10
85.0
 20
494.0
 10
86.0
 20
494.0
 10
92.0
 20
502.0
 10
92.0
 20
504.0
 10
93.0
 20
505.0
 10
93.0
 20
507.0
 10
94.0
 20
508.0
 10
93.0
 20
513.0
 10
91.0
 20
516.0
 10
90.0
 20
516.0
 10
89.0
 20
517.0
 10
87.0
 20
517.0
1001
DXF_CONVERTER
1000
ID:182
1000
PARENT:NONE
1040
513.0
1040
84.83592522144318
  0
LWPOLYLINE
  5
8F
330
17
100
AcDbEntity
  8
LEVEL_0_OUTER
100
AcDbPolyline
 90
32
 70
1
 10
1151.0
 20
428.0
 10
1111.0
 20
481.0
 10
1114.0
 20
492.0
 10
1140.0
 20
471.0
 10
1112.0
 20
520.0
 10
1111.0
 20
501.0
 10
1140.0
 20
472.0
 10
1114.0
 20
492.0
 10
1112.0
 20
478.0
 10
1150.0
 20
425.0
 10
1108.0
 20
476.0
 10
986.0
 20
472.0
 10
934.0
 20
410.0
 10
926.0
 20
432.0
 10
944.0
 20
440.0
 10
943.0
 20
461.0
 10
870.0
 20
474.0
 10
855.0
 20
458.0
 10
851.0
 20
405.0
 10
803.0
 20
470.0
 10
700.0
 20
482.0
 10
630.0
 20
407.0
 10
700.0
 20
482.0
 10
802.0
 20
470.0
 10
850.0
 20
405.0
 10
870.0
 20
474.0
 10
943.0
 20
460.0
 10
944.0
 20
441.0
 10
926.0
 20
432.0
 10
933.0
 20
410.0
 10
989.0
 20
473.0
 10
1107.0
 20
476.0
1001
DXF_CONVERTER
1000
ID:184
1000
PARENT:NONE
1040
769.0
1040
1871.3129272460938
  0
LWPOLYLINE
  5
90
330
17
100
AcDbEntity
  8
LEVEL_0_OUTER
100
AcDbPolyline
 90
18
 70
1
 10
1361.0
 20
523.0
 10
1374.0
 20
490.0
 10
1394.0
 20
459.0
 10
1397.0
 20
462.0
 10
1398.0
 20
481.0
 10
1403.0
 20
483.0
 10
1408.0
 20
446.0
 10
1412.0
 20
435.0
 10
1417.0
 20
432.0
 10
1421.0
 20
447.0
 10
1420.0
 20
457.0
 10
1420.0
 20
440.0
 10
1415.0
 20
432.0
 10
1408.0
 20
446.0
 10
1402.0
 20
485.0
 10
1398.0
 20
481.0
 10
1395.0
 20
459.0
 10
1374.0
 20
491.0
1001
DXF_CONVERTER
1000
ID:185
1000
PARENT:NONE
1040
58.5
1040
363.6810493469238
  0
LWPOLYLINE
  5
91
330
17
100
AcDbEntity
  8
LEVEL_0_OUTER
100
AcDbPolyline
 90
30
 70
1
 10
1359.0
 20
524.0
 10
1357.0
 20
484.0
 10
1370.0
 20
442.0
 10
1339.0
 20
461.0
 10
1382.0
 20
418.0
 10
1390.0
 20
386.0
 10
1369.0
 20
392.0
 10
1354.0
 20
412.0
 10
1353.0
 20
393.0
 10
1319.0
 20
398.0
 10
1347.0
 20
367.0
 10
1341.0
 20
360.0
 10
1390.0
 20
355.0
 10
1366.0
 20
338.0
 10
1398.0
 20
349.0
 10
1412.0
 20
345.0
 10
1398.0
 20
349.0
 10
1367.0
 20
338.0
 10
1390.0
 20
356.0
 10
1342.0
 20
360.0
 10
1347.0
 20
368.0
 10
1319.0
 20
398.0
 10
1353.0
 20
393.0
 10
1353.0
 20
412.0
 10
1368.0
 20
392.0
 10
1390.0
 20
386.0
 10
1382.0
 20
419.0
 10
1339.0
 20
461.0
 10
1370.0
 20
441.0
 10
1357.0
 20
484.0
1001
DXF_CONVERTER
1000
ID:186
1000
PARENT:NONE
1040
81.0
1040
984.8538656234741
  0
LWPOLYLINE
  5
92
330
17
100
AcDbEntity
  8
LEVEL_0_OUTER
100
AcDbPolyline
 90
48
 70
1
 10
429.0
 20
525.0
 10
392.0
 20
460.0
 10
385.0
 20
485.0
 10
372.0
 20
433.0
 10
366.0
 20
460.0
 10
348.0
 20
379.0
 10
323.0
 20
442.0
 10
324.0
 20
417.0
 10
309.0
 20
448.0
 10
277.0
 20
438.0
 10
328.0
 20
360.0
 10
265.0
 20
320.0
 10
317.0
 20
312.0
 10
336.0
 20
341.0
 10
282.0
 20
325.0
 10
337.0
 20
353.0
 10
283.0
 20
436.0
 10
341.0
 20
380.0
 10
339.0
 20
310.0
 10
340.0
 20
383.0
 10
283.0
 20
436.0
 10
337.0
 20
354.0
 10
282.0
 20
325.0
 10
336.0
 20
342.0
 10
317.0
 20
312.0
 10
263.0
 20
323.0
 10
328.0
 20
359.0
 10
277.0
 20
437.0
 10
308.0
 20
448.0
 10
326.0
 20
416.0
 10
323.0
 20
441.0
 10
349.0
 20
379.0
 10
366.0
 20
460.0
 10
373.0
 20
433.0
 10
384.0
 20
483.0
 10
393.0
 20
460.0
 10
428.0
 20
525.0
 10
418.0
 20
442.0
 10
449.0
 20
463.0
 10
397.0
 20
387.0
 10
434.0
 20
413.0
 10
433.0
 20
394.0
 10
467.0
 20
401.0
 10
434.0
 20
394.0
 10
433.0
 20
413.0
 10
397.0
 20
387.0
 10
449.0
 20
463.0
 10
418.0
 20
443.0
1001
DXF_CONVERTER
1000
ID:187
1000
PARENT:NONE
1040
36.5
1040
2717.859365463257
  0
LWPOLYLINE
  5
93
330
17
100
AcDbEntity
  8
LEVEL_0_OUTER
100
AcDbPolyline
 90
21
 70
1
 10
676.0
 20
537.0
 10
636.0
 20
507.0
 10
616.0
 20
473.0
 10
628.0
 20
407.0
 10
616.0
 20
473.0
 10
636.0
 20
506.0
 10
674.0
 20
536.0
 10
663.0
 20
515.0
 10
672.0
 20
510.0
 10
648.0
 20
483.0
 10
644.0
 20
470.0
 10
650.0
 20
470.0
 10
679.0
 20
500.0
 10
683.0
 20
514.0
 10
675.0
 20
520.0
 10
683.0
 20
514.0
 10
681.0
 20
504.0
 10
648.0
 20
469.0
 10
644.0
 20
471.0
 10
672.0
 20
510.0
 10
663.0
 20
520.0
1001
DXF_CONVERTER
1000
ID:188
1000
PARENT:NONE
1040
152.0
1040
622.2658181190491
  0
LWPOLYLINE
  5
94
330
17
100
AcDbEntity
  8
LEVEL_0_OUTER
100
AcDbPolyline
 90
25
 70
1
 10
1360.0
 20
538.0
 10
1371.0
 20
506.0
 10
1388.0
 20
478.0
 10
1403.0
 20
490.0
 10
1409.0
 20
478.0
 10
1411.0
 20
456.0
 10
1418.0
 20
468.0
 10
1424.0
 20
463.0
 10
1431.0
 20
443.0
 10
1428.0
 20
414.0
 10
1433.0
 20
403.0
 10
1452.0
 20
440.0
 10
1461.0
 20
450.0
 10
1468.0
 20
450.0
 10
1462.0
 20
451.0
 10
1455.0
 20
445.0
 10
1433.0
 20
404.0
 10
1428.0
 20
414.0
 10
1431.0
 20
443.0
 10
1424.0
 20
464.0
 10
1417.0
 20
468.0
 10
1411.0
 20
458.0
 10
1404.0
 20
490.0
 10
1388.0
 20
479.0
 10
1368.0
 20
513.0
1001
DXF_CONVERTER
1000
ID:190
1000
PARENT:NONE
1040
23.5
1040
529.3832621574402
  0
LWPOLYLINE
  5
95
330
17
100
AcDbEntity
  8
LEVEL_0_OUTER
100
AcDbPolyline
 90
44
 70
1
 10
514.0
 20
542.0
 10
513.0
 20
502.0
 10
551.0
 20
474.0
 10
513.0
 20
503.0
 10
512.0
 20
538.0
 10
516.0
 20
514.0
 10
565.0
 20
473.0
 10
577.0
 20
444.0
 10
562.0
 20
408.0
 10
535.0
 20
392.0
 10
512.0
 20
395.0
 10
502.0
 20
423.0
 10
529.0
 20
441.0
 10
535.0
 20
424.0
 10
512.0
 20
434.0
 10
509.0
 20
407.0
 10
527.0
 20
397.0
 10
555.0
 20
406.0
 10
568.0
 20
429.0
 10
556.0
 20
463.0
 10
506.0
 20
462.0
 10
478.0
 20
427.0
 10
516.0
 20
484.0
 10
549.0
 20
473.0
 10
515.0
 20
484.0
 10
481.0
 20
445.0
 10
479.0
 20
422.0
 10
495.0
 20
455.0
 10
526.0
 20
468.0
 10
558.0
 20
461.0
 10
568.0
 20
429.0
 10
554.0
 20
406.0
 10
527.0
 20
397.0
 10
506.0
 20
425.0
 10
520.0
 20
436.0
 10
533.0
 20
421.0
 10
536.0
 20
436.0
 10
512.0
 20
438.0
 10
501.0
 20
419.0
 10
511.0
 20
395.0
 10
551.0
 20
398.0
 10
575.0
 20
429.0
 10
570.0
 20
467.0
 10
516.0
 20
515.0
1001
DXF_CONVERTER
1000
ID:191
1000
PARENT:NONE
1040
276.5
1040
1505.7487659454346
  0
LWPOLYLINE
  5
96
330
17
100
AcDbEntity
  8
LEVEL_0_OUTER
100
AcDbPolyline
 90
24
 70
1
 10
695.0
 20
547.0
 10
694.0
 20
546.0
 10
693.0
 20
546.0
 10
693.0
 20
545.0
 10
685.0
 20
536.0
 10
685.0
 20
535.0
 10
683.0
 20
533.0
 10
683.0
 20
532.0
 10
680.0
 20
529.0
 10
680.0
 20
528.0
 10
677.0
 20
525.0
 10
677.0
 20
524.0
 10
675.0
 20
522.0
 10
676.0
 20
522.0
 10
677.0
 20
523.0
 10
677.0
 20
524.0
 10
683.0
 20
531.0
 10
683.0
 20
532.0
 10
685.0
 20
534.0
 10
685.0
 20
535.0
 10
689.0
 20
539.0
 10
689.0
 20
540.0
 10
693.0
 20
544.0
 10
693.0
 20
545.0
1001
DXF_CONVERTER
1000
ID:194
1000
PARENT:NONE
1040
18.0
1040
67.2022635936737
  0
LWPOLYLINE
  5
97
330
17
100
AcDbEntity
  8
LEVEL_0_OUTER
100
AcDbPolyline
 90
43
 70
1
 10
1143.0
 20
526.0
 10
1096.0
 20
548.0
 10
1172.0
 20
489.0
 10
1206.0
 20
337.0
 10
1152.0
 20
253.0
 10
1186.0
 20
281.0
 10
1181.0
 20
226.0
 10
1099.0
 20
185.0
 10
1143.0
 20
193.0
 10
1138.0
 20
173.0
 10
1042.0
 20
138.0
 10
1100.0
 20
123.0
 10
1099.0
 20
66.0
 10
1059.0
 20
57.0
 10
1045.0
 20
107.0
 10
956.0
 20
92.0
 10
894.0
 20
130.0
 10
837.0
 20
93.0
 10
741.0
 20
107.0
 10
713.0
 20
56.0
 10
682.0
 20
105.0
 10
718.0
 20
139.0
 10
746.0
 20
138.0
 10
688.0
 20
121.0
 10
698.0
 20
62.0
 10
735.0
 20
61.0
 10
741.0
 20
107.0
 10
837.0
 20
93.0
 10
895.0
 20
130.0
 10
956.0
 20
92.0
 10
1045.0
 20
107.0
 10
1058.0
 20
57.0
 10
1099.0
 20
65.0
 10
1103.0
 20
120.0
 10
1045.0
 20
138.0
 10
1119.0
 20
155.0
 10
1147.0
 20
191.0
 10
1099.0
 20
184.0
 10
1181.0
 20
225.0
 10
1187.0
 20
281.0
 10
1152.0
 20
253.0
 10
1206.0
 20
337.0
 10
1189.0
 20
449.0
1001
DXF_CONVERTER
1000
ID:195
1000
PARENT:NONE
1040
1839.5
1040
2900.3068981170654
  0
LWPOLYLINE
  5
98
330
17
100
AcDbEntity
  8
LEVEL_0_OUTER
100
AcDbPolyline
 90
28
 70
1
 10
691.0
 20
548.0
 10
651.0
 20
529.0
 10
614.0
 20
484.0
 10
592.0
 20
418.0
 10
600.0
 20
360.0
 10
585.0
 20
362.0
 10
582.0
 20
331.0
 10
635.0
 20
254.0
 10
601.0
 20
282.0
 10
607.0
 20
226.0
 10
687.0
 20
187.0
 10
645.0
 20
193.0
 10
652.0
 20
174.0
 10
676.0
 20
154.0
 10
749.0
 20
139.0
 10
679.0
 20
153.0
 10
652.0
 20
175.0
 10
648.0
 20
194.0
 10
690.0
 20
186.0
 10
607.0
 20
227.0
 10
602.0
 20
282.0
 10
635.0
 20
254.0
 10
582.0
 20
331.0
 10
584.0
 20
360.0
 10
600.0
 20
360.0
 10
592.0
 20
418.0
 10
614.0
 20
483.0
 10
646.0
 20
524.0
1001
DXF_CONVERTER
1000
ID:197
1000
PARENT:NONE
1040
170.0
1040
1456.4146137237549
  0
LWPOLYLINE
  5
99
330
17
100
AcDbEntity
  8
LEVEL_0_OUTER
100
AcDbPolyline
 90
43
 70
1
 10
1252.0
 20
556.0
 10
1210.0
 20
406.0
 10
1277.0
 20
387.0
 10
1278.0
 20
441.0
 10
1242.0
 20
437.0
 10
1259.0
 20
402.0
 10
1225.0
 20
430.0
 10
1277.0
 20
450.0
 10
1404.0
 20
306.0
 10
1339.0
 20
341.0
 10
1323.0
 20
190.0
 10
1253.0
 20
112.0
 10
1185.0
 20
151.0
 10
1187.0
 20
105.0
 10
1354.0
 20
88.0
 10
1441.0
 20
189.0
 10
1478.0
 20
307.0
 10
1548.0
 20
189.0
 10
1589.0
 20
225.0
 10
1611.0
 20
140.0
 10
1545.0
 20
117.0
 10
1612.0
 20
141.0
 10
1565.0
 20
234.0
 10
1549.0
 20
189.0
 10
1478.0
 20
307.0
 10
1441.0
 20
190.0
 10
1353.0
 20
88.0
 10
1187.0
 20
106.0
 10
1186.0
 20
151.0
 10
1253.0
 20
112.0
 10
1323.0
 20
189.0
 10
1340.0
 20
341.0
 10
1417.0
 20
304.0
 10
1312.0
 20
387.0
 10
1351.0
 20
419.0
 10
1377.0
 20
396.0
 10
1332.0
 20
459.0
 10
1358.0
 20
538.0
 10
1332.0
 20
459.0
 10
1376.0
 20
395.0
 10
1311.0
 20
411.0
 10
1270.0
 20
490.0
 10
1292.0
 20
553.0
1001
DXF_CONVERTER
1000
ID:198
1000
PARENT:NONE
1040
6885.5
1040
3928.942771911621
  0
LWPOLYLINE
  5
9A
330
17
100
AcDbEntity
  8
LEVEL_1_HOLE
100
AcDbPolyline
 90
43
 70
1
 10
1276.0
 20
505.0
 10
1236.0
 20
473.0
 10
1272.0
 20
483.0
 10
1305.0
 20
446.0
 10
1310.0
 20
422.0
 10
1294.0
 20
453.0
 10
1258.0
 20
468.0
 10
1223.0
 20
454.0
 10
1220.0
 20
425.0
 10
1238.0
 20
402.0
 10
1264.0
 20
397.0
 10
1280.0
 20
427.0
 10
1267.0
 20
436.0
 10
1256.0
 20
420.0
 10
1250.0
 20
432.0
 10
1273.0
 20
439.0
 10
1286.0
 20
418.0
 10
1278.0
 20
396.0
 10
1237.0
 20
397.0
 10
1212.0
 20
430.0
 10
1217.0
 20
466.0
 10
1270.0
 20
513.0
 10
1271.0
 20
540.0
 10
1270.0
 20
512.0
 10
1211.0
 20
450.0
 10
1219.0
 20
415.0
 10
1254.0
 20
391.0
 10
1280.0
 20
399.0
 10
1284.0
 20
426.0
 10
1257.0
 20
440.0
 10
1251.0
 20
425.0
 10
1275.0
 20
434.0
 10
1279.0
 20
408.0
 10
1264.0
 20
397.0
 10
1234.0
 20
404.0
 10
1219.0
 20
429.0
 10
1230.0
 20
462.0
 10
1277.0
 20
463.0
 10
1309.0
 20
428.0
 10
1271.0
 20
483.0
 10
1236.0
 20
472.0
 10
1276.0
 20
506.0
 10
1273.0
 20
541.0
1001
DXF_CONVERTER
1000
ID:200
1000
PARENT:198
1040
527.5
1040
1510.5286169052124
  0
LWPOLYLINE
  5
9B
330
17
100
AcDbEntity
  8
LEVEL_0_OUTER
100
AcDbPolyline
 90
52
 70
1
 10
536.0
 20
556.0
 10
495.0
 20
553.0
 10
505.0
 20
510.0
 10
496.0
 20
553.0
 10
532.0
 20
558.0
 10
575.0
 20
405.0
 10
502.0
 20
397.0
 10
516.0
 20
445.0
 10
547.0
 20
432.0
 10
520.0
 20
405.0
 10
557.0
 20
416.0
 10
541.0
 20
457.0
 10
475.0
 20
414.0
 10
512.0
 20
490.0
 10
475.0
 20
410.0
 10
411.0
 20
395.0
 10
455.0
 20
456.0
 10
428.0
 20
538.0
 10
399.0
 20
478.0
 10
429.0
 20
538.0
 10
455.0
 20
456.0
 10
410.0
 20
395.0
 10
476.0
 20
391.0
 10
368.0
 20
306.0
 10
445.0
 20
343.0
 10
462.0
 20
189.0
 10
529.0
 20
115.0
 10
594.0
 20
155.0
 10
599.0
 20
112.0
 10
432.0
 20
90.0
 10
308.0
 20
309.0
 10
234.0
 20
191.0
 10
196.0
 20
229.0
 10
172.0
 20
143.0
 10
238.0
 20
120.0
 10
172.0
 20
144.0
 10
194.0
 20
224.0
 10
235.0
 20
191.0
 10
307.0
 20
309.0
 10
431.0
 20
90.0
 10
599.0
 20
111.0
 10
589.0
 20
157.0
 10
547.0
 20
114.0
 10
494.0
 20
142.0
 10
424.0
 20
345.0
 10
517.0
 20
454.0
 10
562.0
 20
429.0
 10
526.0
 20
403.0
 10
545.0
 20
438.0
 10
507.0
 20
440.0
 10
507.0
 20
390.0
 10
577.0
 20
407.0
1001
DXF_CONVERTER
1000
ID:202
1000
PARENT:NONE
1040
1548.0
1040
4552.760227203369
  0
ENDSEC
  0
SECTION
  2
OBJECTS
  0
DICTIONARY
  5
A
330
0
100
AcDbDictionary
281
1
  3
ACAD_COLOR
350
B
  3
ACAD_GROUP
350
C
  3
ACAD_LAYOUT
350
D
  3
ACAD_MATERIAL
350
E
  3
ACAD_MLEADERSTYLE
350
F
  3
ACAD_MLINESTYLE
350
10
  3
ACAD_PLOTSETTINGS
350
11
  3
ACAD_PLOTSTYLENAME
350
12
  3
ACAD_SCALELIST
350
14
  3
ACAD_TABLESTYLE
350
15
  3
ACAD_VISUALSTYLE
350
16
  3
EZDXF_META
350
2D
  0
DICTIONARY
  5
B
330
A
100
AcDbDictionary
281
1
  0
DICTIONARY
  5
C
330
A
100
AcDbDictionary
281
1
  0
DICTIONARY
  5
D
330
A
100
AcDbDictionary
281
1
  3
Model
350
1A
  3
Layout1
350
1E
  0
DICTIONARY
  5
E
330
A
100
AcDbDictionary
281
1
  3
ByBlock
350
1F
  3
ByLayer
350
20
  3
Global
350
21
  0
DICTIONARY
  5
F
330
A
100
AcDbDictionary
281
1
  3
Standard
350
2C
  0
DICTIONARY
  5
10
330
A
100
AcDbDictionary
281
1
  3
Standard
350
22
  0
DICTIONARY
  5
11
330
A
100
AcDbDictionary
281
1
  0
ACDBDICTIONARYWDFLT
  5
12
330
A
100
AcDbDictionary
281
1
  3
Normal
350
13
100
AcDbDictionaryWithDefault
340
13
  0
ACDBPLACEHOLDER
  5
13
330
12
  0
DICTIONARY
  5
14
330
A
100
AcDbDictionary
281
1
  0
DICTIONARY
  5
15
330
A
100
AcDbDictionary
281
1
  0
DICTIONARY
  5
16
330
A
100
AcDbDictionary
281
1
  0
LAYOUT
  5
1A
330
D
100
AcDbPlotSettings
  1

  4
A3
  6

 40
7.5
 41
20.0
 42
7.5
 43
20.0
 44
420.0
 45
297.0
 46
0.0
 47
0.0
 48
0.0
 49
0.0
140
0.0
141
0.0
142
1.0
143
1.0
 70
1024
 72
1
 73
0
 74
5
  7

 75
16
 76
0
 77
2
 78
300
147
1.0
148
0.0
149
0.0
100
AcDbLayout
  1
Model
 70
1
 71
0
 10
0.0
 20
0.0
 11
420.0
 21
297.0
 12
0.0
 22
0.0
 32
0.0
 14
1e+20
 24
1e+20
 34
1e+20
 15
-1e+20
 25
-1e+20
 35
-1e+20
146
0.0
 13
0.0
 23
0.0
 33
0.0
 16
1.0
 26
0.0
 36
0.0
 17
0.0
 27
1.0
 37
0.0
 76
1
330
17
  0
LAYOUT
  5
1E
330
D
100
AcDbPlotSettings
  1

  4
A3
  6

 40
7.5
 41
20.0
 42
7.5
 43
20.0
 44
420.0
 45
297.0
 46
0.0
 47
0.0
 48
0.0
 49
0.0
140
0.0
141
0.0
142
1.0
143
1.0
 70
0
 72
1
 73
0
 74
5
  7

 75
16
 76
0
 77
2
 78
300
147
1.0
148
0.0
149
0.0
100
AcDbLayout
  1
Layout1
 70
1
 71
1
 10
0.0
 20
0.0
 11
420.0
 21
297.0
 12
0.0
 22
0.0
 32
0.0
 14
1e+20
 24
1e+20
 34
1e+20
 15
-1e+20
 25
-1e+20
 35
-1e+20
146
0.0
 13
0.0
 23
0.0
 33
0.0
 16
1.0
 26
0.0
 36
0.0
 17
0.0
 27
1.0
 37
0.0
 76
1
330
1B
  0
MATERIAL
  5
1F
102
{ACAD_REACTORS
330
E
102
}
330
E
100
AcDbMaterial
  1
ByBlock
  2

 70
0
 40
1.0
 71
1
 41
1.0
 91
-1023410177
 42
1.0
 72
1
  3

 73
1
 74
1
 75
1
 44
0.5
 73
0
 45
1.0
 46
1.0
 77
1
  4

 78
1
 79
1
170
1
 48
1.0
171
1
  6

172
1
173
1
174
1
140
1.0
141
1.0
175
1
  7

176
1
177
1
178
1
143
1.0
179
1
  8

270
1
271
1
272
1
145
1.0
146
1.0
273
1
  9

274
1
275
1
276
1
 42
1.0
 72
1
  3

 73
1
 74
1
 75
1
 94
63
  0
MATERIAL
  5
20
102
{ACAD_REACTORS
330
E
102
}
330
E
100
AcDbMaterial
  1
ByLayer
  2

 70
0
 40
1.0
 71
1
 41
1.0
 91
-1023410177
 42
1.0
 72
1
  3

 73
1
 74
1
 75
1
 44
0.5
 73
0
 45
1.0
 46
1.0
 77
1
  4

 78
1
 79
1
170
1
 48
1.0
171
1
  6

172
1
173
1
174
1
140
1.0
141
1.0
175
1
  7

176
1
177
1
178
1
143
1.0
179
1
  8

270
1
271
1
272
1
145
1.0
146
1.0
273
1
  9

274
1
275
1
276
1
 42
1.0
 72
1
  3

 73
1
 74
1
 75
1
 94
63
  0
MATERIAL
  5
21
102
{ACAD_REACTORS
330
E
102
}
330
E
100
AcDbMaterial
  1
Global
  2

 70
0
 40
1.0
 71
1
 41
1.0
 91
-1023410177
 42
1.0
 72
1
  3

 73
1
 74
1
 75
1
 44
0.5
 73
0
 45
1.0
 46
1.0
 77
1
  4

 78
1
 79
1
170
1
 48
1.0
171
1
  6

172
1
173
1
174
1
140
1.0
141
1.0
175
1
  7

176
1
177
1
178
1
143
1.0
179
1
  8

270
1
271
1
272
1
145
1.0
146
1.0
273
1
  9

274
1
275
1
276
1
 42
1.0
 72
1
  3

 73
1
 74
1
 75
1
 94
63
  0
MLINESTYLE
  5
22
102
{ACAD_REACTORS
330
10
102
}
330
10
100
AcDbMlineStyle
  2
Standard
 70
0
  3

 62
256
 51
90.0
 52
90.0
 71
2
 49
0.5
 62
256
  6
BYLAYER
 49
-0.5
 62
256
  6
BYLAYER
  0
MLEADERSTYLE
  5
2C
102
{ACAD_REACTORS
330
F
102
}
330
F
100
AcDbMLeaderStyle
179
2
170
2
171
1
172
0
 90
2
 40
0.0
 41
0.0
173
1
 91
-1056964608
 92
-2
290
1
 42
2.0
291
1
 43
8.0
  3
Standard
 44
4.0
300

342
29
174
1
175
1
176
0
178
1
 93
-1056964608
 45
4.0
292
0
297
0
 46
4.0
 94
-1056964608
 47
1.0
 49
1.0
140
1.0
294
1
141
0.0
177
0
142
1.0
295
0
296
0
143
3.75
271
0
272
9
273
9
  0
DICTIONARY
  5
2D
330
A
100
AcDbDictionary
280
1
281
1
  3
CREATED_BY_EZDXF
350
2E
  3
WRITTEN_BY_EZDXF
350
9E
  0
DICTIONARYVAR
  5
2E
330
2D
100
DictionaryVariables
280
0
  1
1.4.4 @ 2026-08-28T16:09:12.809881+00:00
  0
DICTIONARYVAR
  5
9E
330
2D
100
DictionaryVariables
280
0
  1
1.4.4 @ 2026-08-28T16:09:12.821704+00:00
  0
ENDSEC
  0
EOF
